<?xml version="1.0" encoding="UTF-8" standalone="no"?>
<svg
   viewBox="0 0 300.00001 401.00003"
   id="svg5"
   version="1.1"
   sodipodi:docname="mapa.svg"
   inkscape:version="1.2.2 (732a01da63, 2022-12-09)"
   xmlns:inkscape="http://www.inkscape.org/namespaces/inkscape"
   xmlns:sodipodi="http://sodipodi.sourceforge.net/DTD/sodipodi-0.dtd"
   xmlns:xlink="http://www.w3.org/1999/xlink"
   xmlns="http://www.w3.org/2000/svg"
   xmlns:svg="http://www.w3.org/2000/svg">
  <sodipodi:namedview
     id="namedview7"
     pagecolor="#ffffff"
     bordercolor="#000000"
     borderopacity="0.25"
     inkscape:showpageshadow="2"
     inkscape:pageopacity="0.0"
     inkscape:pagecheckerboard="0"
     inkscape:deskcolor="#d1d1d1"
     inkscape:document-units="mm"
     showgrid="false"
     inkscape:zoom="2.1367164"
     inkscape:cx="142.04038"
     inkscape:cy="188.60716"
     inkscape:window-width="1920"
     inkscape:window-height="1046"
     inkscape:window-x="-11"
     inkscape:window-y="-11"
     inkscape:window-maximized="1"
     inkscape:current-layer="svg5"
     showguides="true" />
  <defs
     id="defs2">
    <linearGradient
       id="linearGradient4568"
       inkscape:swatch="solid">
      <stop
         style="stop-color:#d0d0d0;stop-opacity:1;"
         offset="0"
         id="stop4566" />
    </linearGradient>
    <linearGradient
       id="linearGradient3138"
       inkscape:swatch="solid">
      <stop
         style="stop-color:#d0d0d0;stop-opacity:1;"
         offset="0"
         id="stop3136" />
    </linearGradient>
    <linearGradient
       id="linearGradient3111"
       inkscape:swatch="solid">
      <stop
         style="stop-color:#d0d0d0;stop-opacity:1;"
         offset="0"
         id="stop3109" />
    </linearGradient>
    <linearGradient
       id="linearGradient2364"
       inkscape:swatch="solid">
      <stop
         style="stop-color:#d0d0d0;stop-opacity:1;"
         offset="0"
         id="stop2362" />
    </linearGradient>
    <linearGradient
       id="linearGradient1617"
       inkscape:swatch="solid">
      <stop
         style="stop-color:#d0d0d0;stop-opacity:1;"
         offset="0"
         id="stop1615" />
    </linearGradient>
    <linearGradient
       id="linearGradient1611"
       inkscape:swatch="solid">
      <stop
         style="stop-color:#000000;stop-opacity:1;"
         offset="0"
         id="stop1609" />
    </linearGradient>
    <linearGradient
       inkscape:collect="always"
       xlink:href="#linearGradient2364"
       id="linearGradient3140"
       x1="19.968872"
       y1="129.40083"
       x2="57.794514"
       y2="129.40083"
       gradientUnits="userSpaceOnUse"
       gradientTransform="matrix(2.8783581,0,0,2.8783581,-34.596309,-166.77429)" />
    <linearGradient
       inkscape:collect="always"
       xlink:href="#linearGradient2364"
       id="linearGradient3142"
       x1="64.38736"
       y1="104.70234"
       x2="91.683151"
       y2="104.70234"
       gradientUnits="userSpaceOnUse"
       gradientTransform="matrix(1.9125612,0,0,1.9125612,-25.351662,-120.14059)" />
    <linearGradient
       inkscape:collect="always"
       xlink:href="#linearGradient2364"
       id="linearGradient3144"
       x1="121.07855"
       y1="101.53783"
       x2="152.07169"
       y2="101.53783"
       gradientUnits="userSpaceOnUse"
       gradientTransform="matrix(1.3330474,0,0,1.3330474,-41.037681,19.923668)" />
    <linearGradient
       inkscape:collect="always"
       xlink:href="#linearGradient2364"
       id="linearGradient3146"
       x1="140.57642"
       y1="74.79171"
       x2="169.96632"
       y2="74.79171"
       gradientUnits="userSpaceOnUse"
       gradientTransform="matrix(2.4156518,0,0,2.4156518,-225.94826,14.645612)" />
    <linearGradient
       inkscape:collect="always"
       xlink:href="#linearGradient2364"
       id="linearGradient3148"
       x1="4.2745986"
       y1="30.008305"
       x2="36.990326"
       y2="30.008305"
       gradientUnits="userSpaceOnUse"
       gradientTransform="matrix(2.4180892,0,0,2.4180892,-9.2382335,128.58696)" />
    <linearGradient
       inkscape:collect="always"
       xlink:href="#linearGradient2364"
       id="linearGradient3150"
       x1="35.64957"
       y1="18.098185"
       x2="57.816692"
       y2="18.098185"
       gradientUnits="userSpaceOnUse"
       gradientTransform="matrix(1.8778871,0,0,1.8778871,58.204125,83.173493)" />
    <linearGradient
       inkscape:collect="always"
       xlink:href="#linearGradient2364"
       id="linearGradient3152"
       x1="31.215525"
       y1="49.448402"
       x2="53.171757"
       y2="49.448402"
       gradientUnits="userSpaceOnUse"
       gradientTransform="matrix(4.2418028,0,0,4.2418028,-4.7077278,-155.63495)" />
    <linearGradient
       inkscape:collect="always"
       xlink:href="#linearGradient2364"
       id="linearGradient3154"
       x1="96.17733"
       y1="16.297485"
       x2="131.51959"
       y2="16.297485"
       gradientUnits="userSpaceOnUse"
       gradientTransform="matrix(1.5290519,0,0,1.5290519,13.53765,116.95367)" />
    <linearGradient
       inkscape:collect="always"
       xlink:href="#linearGradient2364"
       id="linearGradient3156"
       x1="22.751078"
       y1="45.797436"
       x2="54.145927"
       y2="45.797436"
       gradientUnits="userSpaceOnUse"
       gradientTransform="matrix(4.0093063,0,0,4.0093063,66.51701,0.3150012)" />
    <linearGradient
       inkscape:collect="always"
       xlink:href="#linearGradient2364"
       id="linearGradient3158"
       x1="143.02187"
       y1="20.320503"
       x2="171.38271"
       y2="20.320503"
       gradientUnits="userSpaceOnUse"
       gradientTransform="matrix(5.0692671,0,0,5.0692671,-580.26835,231.23432)" />
    <linearGradient
       inkscape:collect="always"
       xlink:href="#linearGradient2364"
       id="linearGradient3160"
       x1="54.522274"
       y1="47.986881"
       x2="77.316704"
       y2="47.986881"
       gradientUnits="userSpaceOnUse"
       gradientTransform="matrix(3.4923012,0,0,3.4923012,-163.1543,67.995177)" />
    <linearGradient
       inkscape:collect="always"
       xlink:href="#linearGradient2364"
       id="linearGradient3162"
       x1="80.832764"
       y1="49.525616"
       x2="113.72764"
       y2="49.525616"
       gradientUnits="userSpaceOnUse"
       gradientTransform="matrix(1.8657846,0,0,1.8657846,-75.327172,29.037265)" />
    <linearGradient
       inkscape:collect="always"
       xlink:href="#linearGradient2364"
       id="linearGradient3164"
       x1="124.99854"
       y1="48.91116"
       x2="151.41051"
       y2="48.91116"
       gradientUnits="userSpaceOnUse"
       gradientTransform="matrix(3.4058525,0,0,3.4058525,-216.08992,74.547329)" />
    <linearGradient
       inkscape:collect="always"
       xlink:href="#linearGradient2364"
       id="linearGradient3166"
       x1="5.2278528"
       y1="84.048325"
       x2="45.999622"
       y2="84.048325"
       gradientUnits="userSpaceOnUse"
       gradientTransform="matrix(3.7198794,0,0,3.7198794,12.92455,-22.165302)" />
    <linearGradient
       inkscape:collect="always"
       xlink:href="#linearGradient2364"
       id="linearGradient3168"
       x1="48.190376"
       y1="77.422974"
       x2="76.271454"
       y2="77.422974"
       gradientUnits="userSpaceOnUse"
       gradientTransform="matrix(1.9314084,0,0,1.9314084,73.558634,-32.034262)" />
    <linearGradient
       inkscape:collect="always"
       xlink:href="#linearGradient2364"
       id="linearGradient3170"
       x1="103.46152"
       y1="81.925781"
       x2="132.24965"
       y2="81.925781"
       gradientUnits="userSpaceOnUse"
       gradientTransform="matrix(3.6131273,0,0,3.6131273,-227.22881,-32.824033)" />
    <linearGradient
       inkscape:collect="always"
       xlink:href="#linearGradient1611"
       id="linearGradient4570"
       x1="218.09166"
       y1="46.800793"
       x2="234.47194"
       y2="46.800793"
       gradientUnits="userSpaceOnUse"
       gradientTransform="matrix(1.1536825,0,0,1.1876144,-120.74368,48.227788)" />
    <linearGradient
       inkscape:collect="always"
       xlink:href="#linearGradient1611"
       id="linearGradient4574"
       gradientUnits="userSpaceOnUse"
       gradientTransform="matrix(1.1536825,0,0,1.1876144,-160.99236,141.36134)"
       x1="218.09166"
       y1="46.800793"
       x2="234.47194"
       y2="46.800793" />
    <linearGradient
       inkscape:collect="always"
       xlink:href="#linearGradient1611"
       id="linearGradient6756"
       gradientUnits="userSpaceOnUse"
       gradientTransform="matrix(1.1536825,0,0,1.1876144,-79.558996,117.02493)"
       x1="218.09166"
       y1="46.800793"
       x2="234.47194"
       y2="46.800793" />
  </defs>
  <path
     d="m 32.895975,270.5685 c 0.457627,-0.28934 0.747712,-0.30722 0.747712,-0.0461 0,0.10846 -0.251999,0.21586 -0.559993,0.23919 -0.44011,0.0329 -0.480298,-0.008 -0.187727,-0.19316 z m -8.325267,-5.50464 c -0.929196,-1.08115 -1.689451,-2.14725 -1.689451,-2.36912 0,-0.22191 0.15474,-0.70755 0.343871,-1.07924 0.189138,-0.37176 2.060049,-5.12479 4.157601,-10.5623 2.583734,-6.69792 4.422448,-11.05134 5.701141,-13.49841 1.887413,-3.61196 1.887413,-3.61196 2.007242,-12.13899 0.119827,-8.52705 0.119827,-8.52705 1.091019,-10.46678 0.97119,-1.93977 0.97119,-1.93977 3.365194,-1.93977 2.394008,0 2.394008,0 4.876186,-2.31518 1.560493,-1.45549 2.482796,-2.50373 2.483839,-2.82296 10e-4,-0.29476 -0.6851,-1.18736 -1.635214,-2.12745 -1.503919,-1.48812 -1.63098,-1.69626 -1.564307,-2.56267 0.08764,-1.13876 0.545755,-1.35897 0.641775,-0.30844 0.118213,1.29319 0.290884,1.81749 0.643121,1.95267 0.187353,0.072 1.154249,-0.023 2.148658,-0.21387 1.660655,-0.31643 1.949272,-0.46973 3.541003,-1.88092 1.732982,-1.5364 1.732982,-1.5364 1.732982,-4.61578 0,-3.07942 0,-3.07942 1.791135,-4.73776 1.791136,-1.65829 1.791136,-1.65829 3.265778,-1.49146 1.474635,0.16693 1.474635,0.16693 3.693997,-1.36857 1.936464,-1.33972 2.367066,-1.53545 3.378156,-1.53545 1.146896,0 1.185193,-0.0288 3.729794,-2.69059 4.134401,-4.32676 5.665996,-6.03841 5.665996,-6.33207 0,-0.15141 -0.627981,-0.93357 -1.395516,-1.73825 -1.340975,-1.40588 -1.380633,-1.48586 -1.014521,-2.04631 0.390414,-0.59764 0.66638,-4.78806 0.337014,-5.11742 -0.08957,-0.0896 -0.983191,-0.34887 -1.985808,-0.57617 -1.822963,-0.41334 -1.822963,-0.41334 -1.895174,-2.89354 -0.03975,-1.36414 -0.194692,-2.62776 -0.344348,-2.80807 -0.149643,-0.18021 -0.606811,-0.41465 -1.01589,-0.52062 -0.743787,-0.19286 -0.743787,-0.19286 0.09405,-1.23753 0.460804,-0.57466 0.984704,-1.05062 1.164222,-1.05774 0.179493,-0.008 0.933676,0.325 1.675915,0.73796 1.352574,0.75258 2.469136,0.96018 2.746874,0.51079 0.08167,-0.13212 0.218467,-1.00495 0.304113,-1.93974 0.140349,-1.53179 0.247855,-1.79236 1.088391,-2.63826 0.888375,-0.89399 1.010451,-0.93857 2.571099,-0.93857 1.887033,0 1.942564,-0.0389 3.321935,-2.33467 1.070903,-1.78227 1.330095,-1.91699 3.702206,-1.92409 0.705506,-0.002 1.437313,-0.10171 1.626252,-0.22135 0.188934,-0.11974 0.980343,-1.38502 1.75868,-2.81194 1.415167,-2.59431 1.415167,-2.59431 5.805851,-2.50433 4.955612,0.10171 4.476039,0.26423 6.285347,-2.13216 0.555081,-0.73521 1.136497,-1.33501 1.292024,-1.33294 0.15555,0.002 1.18382,0.28495 2.28509,0.62881 2.00557,0.62609 3.28918,0.63452 3.68793,0.023 0.1013,-0.15485 0.1856,-0.7038 0.18772,-1.22003 0.003,-0.93857 0.003,-0.93857 3.9298,-0.93857 3.92594,0 3.92594,0 5.06835,-0.9408 0.62833,-0.51743 1.33383,-1.08965 1.56778,-1.27158 0.38178,-0.29692 0.5393,-0.10396 1.53701,1.88255 0.92656,1.84492 1.26688,2.28743 2.04424,2.65814 0.84993,0.4053 0.91893,0.51317 0.77819,1.21696 -0.0849,0.42474 -0.15445,1.7718 -0.15445,2.99356 0,2.22131 0,2.22131 -0.72022,2.22131 -0.39613,0 -0.83799,0.14191 -0.98193,0.31533 -0.283,0.34098 -1.34659,15.04371 -1.12922,15.61012 0.0757,0.19747 0.49232,0.34332 0.98096,0.34332 0.8037,0 0.84925,0.0469 0.84925,0.87602 0,1.12469 0.56011,1.67553 2.41158,2.37148 1.12711,0.42364 1.85878,0.5302 3.15155,0.45888 1.49522,-0.0823 1.77668,-0.18307 2.51481,-0.89847 0.45714,-0.44308 0.94264,-0.80557 1.07894,-0.80557 0.33402,0 2.60669,2.32432 2.60669,2.66593 0,0.14908 -0.45054,0.56916 -1.00117,0.93353 -1.13346,0.75009 -1.08535,0.59185 -1.00941,3.31866 0.0567,2.03749 0.0567,2.03749 -1.46969,2.21464 -0.83953,0.0975 -1.5989,0.29449 -1.68751,0.43788 -0.0885,0.14336 -0.34754,1.00517 -0.57533,1.91512 -0.41267,1.64839 -0.4195,1.65711 -1.88689,2.40526 -1.61601,0.82394 -1.64809,0.86326 -2.39838,2.94093 -0.51971,1.43914 -0.51971,1.43914 -2.27021,1.43914 -1.9174,0 -2.32815,0.14995 -3.90762,1.42642 -1.21215,0.97965 -1.38425,1.80438 -0.50057,2.39898 0.30973,0.20838 0.98551,0.77154 1.50173,1.25142 0.93859,0.87248 0.93859,0.87248 0.93859,3.90782 0,3.03537 0,3.03537 -3.54219,8.1893 -3.54218,5.15397 -3.54218,5.15397 -5.2227,5.05901 -1.60796,-0.0908 -1.80177,-0.17502 -4.49163,-1.9537 -2.81114,-1.85874 -2.81114,-1.85874 -2.66419,-2.74689 0.0808,-0.48849 0.1482,-1.51393 0.14972,-2.27874 0.003,-1.39063 0.003,-1.39063 2.27912,-3.35801 1.25201,-1.08206 2.40971,-2.10072 2.57266,-2.26363 0.16294,-0.16292 0.50194,-1.30936 0.7533,-2.54757 0.45693,-2.25084 0.45729,-2.25151 1.80742,-3.30598 0.98347,-0.76811 1.35039,-1.22237 1.35039,-1.67187 0,-0.8259 -0.46427,-0.96704 -4.38179,-1.33235 -3.25549,-0.30352 -3.25549,-0.30352 -9.260687,2.65229 -6.005229,2.95585 -6.005229,2.95585 -6.956035,4.77044 -0.885888,1.69074 -1.006878,1.81462 -1.772012,1.81462 -0.82121,0 -0.82121,0 -1.051503,-1.79084 -0.157303,-1.2232 -0.363816,-1.87393 -0.651542,-2.05302 -0.680572,-0.42362 -9.89796,0.90183 -10.457429,1.50374 -0.236629,0.25475 -1.98366,2.9408 -3.88227,5.96932 -1.898619,3.0285 -3.465113,5.52384 -3.4811,5.54518 -0.01582,0.0202 -0.986423,-0.0587 -2.156527,-0.17759 -1.627778,-0.1658 -2.202767,-0.14133 -2.448113,0.10302 -0.211387,0.2107 -0.339325,1.20258 -0.375436,2.91067 -0.05477,2.59114 -0.05477,2.59114 0.758667,2.80618 0.447388,0.11831 0.813435,0.25388 0.813435,0.30148 0,0.0474 -0.273761,0.57932 -0.608348,1.1817 -1.011523,1.82114 -4.440514,11.27819 -4.294055,11.8429 0.07352,0.28352 0.584474,0.77063 1.135467,1.08255 1.00181,0.56719 1.00181,0.56719 0.577116,1.45781 -0.322655,0.67658 -0.546734,0.8644 -0.932614,0.78156 -0.279346,-0.0599 -1.203416,-0.25818 -2.053473,-0.44025 -2.153914,-0.46164 -2.225575,-0.3705 -2.406546,3.05994 -0.147688,2.79922 -0.147688,2.79922 -5.707017,8.36269 -5.559348,5.56345 -5.559348,5.56345 -11.215433,7.53879 -5.656087,1.97536 -5.656087,1.97536 -9.410423,10.40745 -2.064884,4.63766 -3.810651,8.42358 -3.87948,8.41312 -0.06882,-0.0114 -0.885395,-0.90355 -1.814597,-1.98471 z"
     id="path340"
     sodipodi:nodetypes="ssssssssssssscssssssssssssssssssssssssssssssssssssssssssssssssssssssssssssssssssssssssssssssssssssssssssssssssssssss"
     style="fill:url(#linearGradient3140);fill-opacity:1.0;stroke-width:0.250289"
     inkscape:label="AO" />
  <path
     d="m 127.59371,98.776523 c -5.49314,-2.243899 -5.87519,-2.443377 -7.00016,-3.655711 -1.25138,-1.34847 -1.71144,-2.477665 -1.71379,-4.20618 -0.002,-1.707382 -0.0378,-1.71551 -6.35006,-1.458137 -3.06583,0.125463 -5.63272,0.131775 -5.70418,0.0153 -0.0715,-0.116666 -0.34445,-0.155109 -0.60664,-0.08684 -0.26219,0.0723 -0.4767,0.04016 -0.4767,-0.06425 0,-0.288643 -1.99207,-0.821884 -2.3178,-0.620721 -0.18801,0.11571 -0.21596,0.06425 -0.0817,-0.154343 0.15263,-0.246855 0.0659,-0.29509 -0.34028,-0.188962 -0.34927,0.0916 -0.48538,0.0482 -0.37894,-0.126229 0.10748,-0.173661 -0.0354,-0.216291 -0.40355,-0.119726 -0.31333,0.08205 -0.49963,0.08033 -0.41391,-0.0058 0.21243,-0.212275 -2.675405,-1.098231 -3.087239,-0.947081 -0.198676,0.0723 -0.258091,0.0058 -0.149945,-0.168879 0.12145,-0.196995 0.0059,-0.244445 -0.361415,-0.148033 -0.473252,0.123743 -0.507092,0.08033 -0.272652,-0.358605 0.147267,-0.274968 0.203446,-0.66735 0.12489,-0.872453 -0.09104,-0.237195 -0.03791,-0.307157 0.14669,-0.192977 0.196925,0.121447 0.243951,0.0038 0.147083,-0.365835 -0.07875,-0.299908 -0.06121,-0.494493 0.03782,-0.433386 0.252558,0.156065 0.828216,-2.106496 0.621203,-2.441538 -0.108068,-0.174425 -0.0499,-0.200206 0.16218,-0.0723 0.245795,0.152049 0.295482,0.06426 0.192172,-0.328049 -0.07629,-0.29268 -0.02262,-0.571684 0.120109,-0.619115 0.14267,-0.0482 0.272731,-0.439813 0.288962,-0.871421 0.01532,-0.43178 0.132729,-0.721226 0.258832,-0.644035 0.12603,0.08033 0.16505,-0.104617 0.0866,-0.404431 -0.0787,-0.299909 -0.0611,-0.494493 0.0379,-0.433386 0.25256,0.156065 0.82821,-2.106515 0.6212,-2.44148 -0.10805,-0.17519 -0.0499,-0.200207 0.16219,-0.0723 0.24691,0.152814 0.29509,0.06426 0.18896,-0.340111 -0.0787,-0.299832 -0.0612,-0.494818 0.0378,-0.433463 0.25255,0.156065 0.8282,-2.106494 0.62113,-2.44148 -0.10807,-0.174999 -0.0499,-0.199804 0.16218,-0.06924 0.24578,0.152049 0.29549,0.06751 0.19216,-0.327793 -0.0763,-0.293005 -0.0226,-0.571532 0.1201,-0.619116 0.14268,-0.04744 0.27273,-0.439736 0.28899,-0.871459 0.0153,-0.431761 0.13273,-0.721533 0.25881,-0.643939 0.12604,0.07727 0.16506,-0.104235 0.0866,-0.404125 -0.0787,-0.299814 -0.0612,-0.494876 0.0379,-0.433464 0.25254,0.156065 0.82822,-2.106493 0.62119,-2.441498 -0.10806,-0.174809 -0.0499,-0.199805 0.16219,-0.06904 0.24692,0.152622 0.29509,0.06598 0.18876,-0.340283 -0.0787,-0.299814 -0.061,-0.494799 0.0379,-0.433445 0.25256,0.156065 0.82822,-2.106494 0.62123,-2.441498 -0.10806,-0.174999 -0.0499,-0.199806 0.16217,-0.06923 0.24579,0.152048 0.29548,0.06751 0.19217,-0.327795 -0.0763,-0.292927 -0.0226,-0.571519 0.1201,-0.619118 0.14268,-0.04744 0.27274,-0.439731 0.28897,-0.871443 0.0153,-0.431771 0.11475,-0.732644 0.21904,-0.668562 0.10422,0.06432 0.18952,-0.05227 0.18952,-0.257856 0,-0.205835 0.48076,-0.35225 0.88649,-0.666792 0.45671,-0.354099 0.58263,-0.407409 0.76055,-0.496334 0.11782,-0.0587 0.0266,-0.130972 0.18706,-0.192489 0.75563,-0.288408 0.45065,-0.09456 0.70225,-0.292429 0.11398,-0.08949 0.38954,-0.194818 0.56089,-0.212829 0.77133,-0.08121 0.87846,-0.174961 1.19493,-0.188234 0.12241,-0.0054 0.20536,0.04262 0.6089,0.04262 0.40356,0 0.81872,-0.01759 0.6565,-0.02814 -0.12012,-0.008 0.28078,0.111119 0.62393,0.04583 0.34317,-0.06593 0.39165,0.04824 0.50985,0.06513 0.66655,0.09448 1.79688,0.27804 2.20467,0.340353 0.286,0.04341 0.1815,0.07397 0.4231,0.124698 0.44801,0.09448 -0.0819,-0.0201 0.46618,0.200368 0.34759,0.139828 0.18495,0.132024 0.31943,0.151876 0.32783,0.04824 0.28714,0.03458 0.62394,0.127835 0.53058,0.146331 0.75894,0.286401 0.46772,0.133478 -0.16105,-0.08458 0.0939,0.102763 0.50526,0.126306 0.55767,0.03217 0.97232,0.168287 0.69099,0.137246 -0.18112,-0.0201 -0.0874,0.06272 0.32716,0.113931 0.40081,0.04984 0.53324,0.116991 0.66912,0.119152 0.295,0.0054 0.25891,0.105899 0.62395,0.12776 0.34871,0.02091 0.57256,-0.03618 0.50984,0.06513 -0.15299,0.247483 1.85376,0.55728 2.20467,0.34035 0.17673,-0.109265 0.20317,-0.05227 0.0733,0.157519 -0.153,0.247402 -0.0379,0.296772 0.46619,0.200367 0.36801,-0.06993 0.66904,-0.01683 0.66904,0.119153 0,0.135887 0.28077,0.193371 0.62393,0.127835 0.37767,-0.07237 0.56227,-0.01929 0.46771,0.133478 -0.0954,0.154688 0.10042,0.203662 0.50527,0.126324 0.36381,-0.06916 0.6101,-0.04341 0.54739,0.05789 -0.15301,0.247403 1.85373,0.557281 2.20464,0.340351 0.15378,-0.09496 0.20505,-0.05549 0.11553,0.08941 -0.18801,0.304087 1.73828,0.675325 2.15799,0.415925 0.17672,-0.109265 0.20319,-0.05221 0.0732,0.157594 -0.15261,0.247008 -0.0394,0.297022 0.45743,0.202062 0.36318,-0.06923 0.69597,-0.01931 0.73954,0.111503 0.0434,0.130628 0.54741,0.256322 1.11964,0.279081 0.57224,0.02257 0.99729,0.112266 0.94465,0.199232 -0.13884,0.229085 1.89539,0.516199 2.223,0.313736 0.17671,-0.109207 0.20319,-0.05221 0.0733,0.157595 -0.15301,0.247485 -0.0379,0.296771 0.46618,0.200359 0.36801,-0.07 0.66913,-0.01722 0.66913,0.119153 0,0.135792 0.28076,0.193361 0.62393,0.127759 0.37766,-0.0723 0.56226,-0.01932 0.4677,0.133497 -0.0954,0.154727 0.10042,0.203649 0.50527,0.126229 0.36381,-0.06924 0.60133,-0.02888 0.52786,0.0897 -0.0732,0.11877 0.0322,0.216121 0.23549,0.216121 0.20302,0 0.48009,0.312607 0.61573,0.694698 0.1356,0.382074 2.43148,6.649133 5.10195,13.926831 l 4.85534,13.23212 -0.72982,1.040835 c -0.65409,0.932852 -0.85129,1.04879 -1.89988,1.11705 -0.93302,0.06427 -1.53101,-0.105382 -2.95169,-0.821005 -0.97988,-0.493671 -2.04259,-0.897145 -2.36159,-0.897145 -0.39357,0 -1.2848,0.709962 -2.7732,2.210386 -2.17207,2.189071 -2.19396,2.223817 -2.26829,3.599764 l -0.0748,1.389455 -1.76833,0.0483 c -1.69987,0.0483 -1.99332,-0.0402 -7.57858,-2.324238 z"
     id="path1991"
     style="fill:url(#linearGradient3142);fill-opacity:1.0;stroke-width:0.352961"
     inkscape:label="AZC" />
  <path
     d="m 139.99331,171.8683 c -5.02054,-0.0602 -6.16978,-0.13746 -6.16978,-0.41523 0,-0.18776 -0.95867,-1.1966 -2.13034,-2.24186 -2.38111,-2.12423 -2.30782,-2.1152 -4.09174,-0.50357 -0.84008,0.75899 -1.0974,0.85195 -2.35851,0.85195 -1.50039,0 -2.72474,-0.46533 -2.98093,-1.13296 -0.0852,-0.22195 -0.15486,-0.76455 -0.15486,-1.20579 0,-0.9463 -0.38,-1.40054 -1.17162,-1.40054 -0.31535,0 -0.57174,-0.0841 -0.56974,-0.18694 0.002,-0.10272 0.16863,-2.48662 0.37032,-5.2973 0.20166,-2.81069 0.36831,-5.4749 0.37028,-5.9205 0.002,-0.67906 0.0968,-0.81018 0.57921,-0.81018 1.25948,0 1.39223,-0.36051 1.5726,-4.27121 l 0.16827,-3.648 4.76227,-1.43923 c 2.61925,-0.79159 7.45454,-2.3428 10.7451,-3.44712 l 5.98284,-2.00787 7.93745,-0.0848 7.93744,-0.085 -0.14732,0.76092 c -0.0811,0.4185 -0.20908,1.08271 -0.28457,1.47602 -0.11063,0.57661 0.004,0.83392 0.5921,1.32877 l 0.72934,0.61371 -1.67724,7.70776 c -0.92248,4.23928 -2.02797,9.22218 -2.45667,11.07311 -0.4287,1.85095 -1.09715,4.93585 -1.4855,6.85532 l -0.70605,3.48999 -4.59629,0.007 c -2.52794,0.004 -7.37268,-0.026 -10.76606,-0.0668 z"
     id="path2738"
     style="fill:url(#linearGradient3144);fill-opacity:1.0;stroke-width:0.242262"
     inkscape:label="BJ" />
  <path
     d="m 146.59822,217.15113 c -0.81241,-0.56563 -2.09543,-1.61452 -2.85114,-2.33088 l -1.37403,-1.30251 -12.21829,-0.17488 c -12.21827,-0.17466 -12.21827,-0.17466 -13.98061,-1.00496 -3.42836,-1.61501 -3.45518,-1.10971 0.35174,-6.63041 l 3.31822,-4.81195 -0.0397,-3.90401 -0.0397,-3.90406 -1.1786,-1.04303 c -1.14717,-1.01522 -1.16526,-1.0533 -0.67924,-1.42765 0.34924,-0.26903 1.08584,-0.38701 2.45068,-0.39257 1.07325,-0.005 2.15175,-0.11522 2.3967,-0.24627 0.24494,-0.13117 0.75882,-1.09782 1.14194,-2.14827 0.69659,-1.90993 0.69659,-1.90993 2.25149,-2.60757 1.55493,-0.69764 1.55493,-0.69764 1.98571,-2.45553 0.43081,-1.75793 0.43081,-1.75793 1.84322,-1.92864 0.77683,-0.094 1.55282,-0.28294 1.72448,-0.42013 0.21113,-0.16886 0.31208,-1.03368 0.31208,-2.67323 0,-2.42382 0,-2.42382 1.09456,-3.20985 l 1.09456,-0.78605 13.94801,0.23819 c 13.94803,0.23818 13.94803,0.23818 14.38492,-0.28261 0.24036,-0.28645 0.43695,-0.69216 0.43695,-0.9016 0,-0.31063 0.21837,-0.35079 1.18591,-0.21813 0.65227,0.0896 1.94431,0.23311 2.8712,0.31947 l 1.68528,0.15677 v 2.552 c 0,2.92448 -0.28092,2.37603 3.42547,6.68794 2.31692,2.69542 2.31692,2.69542 2.31692,4.54636 v 1.85092 l 4.26638,4.81626 c 4.7569,5.36994 5.1587,5.76741 5.64258,5.58175 0.28262,-0.10847 0.31719,0.96292 0.20701,6.41804 -0.0727,3.60155 -0.19566,7.13808 -0.27352,7.85901 l -0.14132,1.31076 h -3.00671 c -3.42732,0 -1.67598,0.61234 -13.52248,-4.72799 -3.41211,-1.53816 -6.35753,-2.73771 -6.54538,-2.66562 -0.18793,0.0722 -1.31781,1.59663 -2.51104,3.38783 l -2.16947,3.25678 -2.76994,0.005 c -1.52343,0.002 -2.89438,0.0865 -3.04652,0.18721 -0.15218,0.10098 -0.75185,1.02608 -1.33272,2.05594 -0.58084,1.02989 -1.08368,1.90066 -1.11745,1.93503 -0.0338,0.0343 -0.72607,-0.40027 -1.53848,-0.9659 z"
     id="path3122"
     style="fill:url(#linearGradient3146);fill-opacity:1.0;stroke-width:0.374127"
     inkscape:label="COY" />
  <path
     style="fill:url(#linearGradient3148);fill-opacity:1.0;stroke-width:0.250551"
     d="m 21.423538,262.22279 c -0.822808,-0.20577 -0.235498,-0.0406 -0.818503,-0.15887 -0.370581,-0.0749 -1.210558,-0.0716 -1.849903,-0.15935 l -1.162444,-0.15936 v -6.95417 -6.95418 l 0.563738,-0.13374 c 0.310055,-0.0735 1.212034,-0.21157 2.0044,-0.30658 0.792364,-0.0951 1.440666,-0.27999 1.440666,-0.4111 0,-0.45668 -1.310378,-1.95278 -1.569891,-1.79239 -0.15541,0.0961 -0.186146,0.0399 -0.07583,-0.13879 0.219683,-0.35547 -0.313751,-1.08729 -0.643828,-0.88328 -0.125619,0.0777 -0.197388,4.8e-4 -0.159521,-0.17169 0.04907,-0.22294 -0.279335,-0.29443 -1.143382,-0.24892 l -1.212226,0.0639 0.173281,-1.61811 c 0.140443,-1.31147 0.09196,-1.74229 -0.255843,-2.27311 -0.23603,-0.36022 -0.546966,-0.5821 -0.690987,-0.49309 -0.15321,0.0947 -0.187088,0.0409 -0.0816,-0.12986 0.09917,-0.16031 -0.100003,-0.64978 -0.442568,-1.08751 -0.579404,-0.74031 -0.718277,-0.79139 -1.991808,-0.73241 l -1.368976,0.0635 -0.225173,-0.95638 c -0.223649,-0.94994 -0.235231,-0.9575 -1.720084,-1.1171 -0.8222066,-0.0885 -3.1512946,-0.17291 -5.1757493,-0.1879 -2.4852626,-0.0193 -3.7388972,-0.12115 -3.8596055,-0.31648 -0.1035608,-0.16756 -0.069428,-0.22173 0.08117,-0.12863 0.3334577,0.20601 1.4364349,-2.69999 1.1813894,-3.11266 -0.1185796,-0.192 -0.083955,-0.2406 0.093343,-0.13081 0.1688076,0.10421 0.3417896,-0.0644 0.4311404,-0.42033 0.1099236,-0.43794 0.6694942,-0.84818 2.1245605,-1.55764 1.0864357,-0.52966 1.9187174,-1.05469 1.8495145,-1.16667 -0.069197,-0.11202 0.026508,-0.14508 0.2126706,-0.0738 0.4149921,0.15909 1.5527223,-1.75719 1.2928307,-2.1777 -0.099305,-0.16056 -0.070773,-0.22317 0.063857,-0.14001 0.3312299,0.20482 1.1608412,-1.24846 0.9359116,-1.63939 -0.098951,-0.17192 -0.09292,-0.2343 0.013301,-0.13854 0.1063223,0.0957 0.4644021,-0.14823 0.7957391,-0.54195 l 0.602433,-0.71595 -0.401519,-3.46341 c -0.220846,-1.90486 -0.4608187,-3.55935 -0.5332953,-3.67661 -0.072463,-0.11728 -0.3447034,-0.15765 -0.6049466,-0.0894 -0.2602442,0.0683 -0.4156569,0.0308 -0.3453607,-0.0829 0.170548,-0.27595 -1.2870067,-0.58508 -1.6630161,-0.3527 -0.1955032,0.12091 -0.2283641,0.074 -0.097209,-0.13808 0.1508649,-0.2441 -0.017172,-0.2955 -0.7043029,-0.2152 -0.8176851,0.0955 -0.9168095,0.0401 -1.0549607,-0.58888 -0.2084383,-0.94897 -0.055419,-1.11181 1.3649261,-1.45257 0.98445,-0.23625 1.2907871,-0.43908 1.5282053,-1.01224 0.1633184,-0.39428 0.2122846,-0.85385 0.1088188,-1.02125 -0.114858,-0.18595 -0.083334,-0.23963 0.080934,-0.13807 0.1575869,0.0975 0.3862514,-0.18887 0.5519316,-0.69081 0.3076686,-0.93224 0.6516824,-1.15193 1.8037955,-1.15193 h 0.75254 l -0.084,-1.60541 c -0.04621,-0.883 0.0055,-1.54977 0.114857,-1.48173 0.309188,0.19223 0.942816,-0.44276 0.760385,-0.76211 -0.08947,-0.1567 -0.07341,-0.20433 0.03572,-0.10566 0.304442,0.27484 1.17361,-0.28616 0.976274,-0.63014 -0.09482,-0.1654 -0.08319,-0.22004 0.02592,-0.12162 0.304445,0.27485 1.173613,-0.28616 0.976278,-0.63013 -0.09482,-0.1654 -0.08319,-0.22003 0.02592,-0.12138 0.304445,0.27483 1.17361,-0.28617 0.976275,-0.63015 -0.09482,-0.16539 -0.08319,-0.22004 0.02593,-0.12162 0.304443,0.27484 1.173609,-0.28615 0.976273,-0.63013 -0.09482,-0.16539 -0.08319,-0.22006 0.02592,-0.12163 0.304445,0.27484 1.173612,-0.28615 0.976276,-0.63012 -0.09482,-0.1654 -0.08319,-0.22005 0.02593,-0.12164 0.304442,0.27485 1.173608,-0.28616 0.976274,-0.63013 -0.09485,-0.1654 -0.08319,-0.22004 0.02593,-0.12139 0.27547,0.24868 1.183446,-0.27336 0.997823,-0.57371 -0.08298,-0.13421 -0.05798,-0.22803 0.05565,-0.20845 0.636764,0.11057 0.815223,-0.192 1.084824,-1.83994 0.287819,-1.75923 0.348925,-1.8692 1.938299,-3.48817 l 1.641113,-1.67169 -0.135074,-2.16504 -0.135073,-2.16504 1.351284,-0.66275 1.35129,-0.66273 v -3.33024 c 0,-3.2854 -0.0074,-3.33029 -0.563737,-3.33406 -0.840523,-0.005 -1.102411,-0.26371 -1.450176,-1.42862 -0.173498,-0.58115 -0.392658,-1.00891 -0.487033,-0.95058 -0.09437,0.0582 -0.171588,-0.0532 -0.171588,-0.24775 0,-0.19464 0.07556,-0.30705 0.167962,-0.24997 0.294131,0.18185 1.26721,-0.6499 1.092027,-0.93335 -0.102623,-0.16613 -0.05112,-0.19974 0.132053,-0.0865 0.330032,0.20409 1.09404,-0.30277 0.908674,-0.60273 -0.06367,-0.10296 0.360385,-0.095 0.942319,0.0169 0.581937,0.11273 1.605065,0.20965 2.273614,0.2157 l 1.21554,0.009 -0.177271,-1.81649 c -0.0975,-0.99907 -0.193495,-1.92779 -0.213348,-2.06382 -0.01983,-0.13614 0.970589,-0.77088 2.200952,-1.4108 2.140757,-1.1134 3.779167,-2.56681 3.465552,-3.07425 -0.07844,-0.12695 -0.02248,-0.15645 0.124411,-0.0659 0.306961,0.18982 2.326323,-1.99705 2.24472,-2.4308 -0.02973,-0.15813 0.07943,-0.26191 0.242614,-0.23043 0.30837,0.0595 2.358065,-2.11481 2.26289,-2.40034 -0.02977,-0.0892 0.02127,-0.16226 0.113621,-0.16226 0.09225,0 0.439618,-0.25542 0.771936,-0.56763 l 0.604209,-0.56762 0.4641,0.51284 c 0.560303,0.61913 0.830557,2.34022 0.855065,5.44552 0.01044,1.30901 0.123492,2.31758 0.260025,2.31758 0.33749,0 0.781428,-0.89357 0.56374,-1.1347 -0.09852,-0.10902 -0.04815,-0.12357 0.111904,-0.0319 0.359961,0.20599 2.400216,-2.29117 2.172712,-2.65929 -0.08853,-0.14314 -0.04339,-0.18763 0.100256,-0.0989 0.265213,0.16396 2.246236,-2.04926 2.136838,-2.38723 -0.03279,-0.1013 0.08574,-0.1284 0.263462,-0.0602 0.301097,0.1156 5.318277,-1.95699 5.757629,-2.37842 0.109348,-0.10493 0.278464,-0.88649 0.375827,-1.73696 l 0.177029,-1.54629 0.802933,0.56748 c 0.441613,0.31215 0.937783,0.81735 1.1026,1.1227 0.164817,0.30536 0.412843,0.48526 0.551168,0.39977 0.142207,-0.0877 0.173933,-0.03 0.07301,0.13347 -0.22007,0.35607 0.442699,1.36046 0.727458,1.1024 0.113093,-0.10254 0.12463,-0.0455 0.02565,0.12648 -0.217506,0.37798 0.434879,1.39012 0.726005,1.1263 0.113093,-0.10256 0.119335,-0.0369 0.01379,0.14534 -0.183946,0.31831 0.718675,1.54739 1.136369,1.54739 0.357104,0 3.003335,-4.02503 2.830302,-4.30502 -0.112901,-0.18257 -0.06083,-0.21208 0.147504,-0.0834 0.256086,0.15815 0.29097,-0.1799 0.170475,-1.65249 -0.08338,-1.01833 -0.224059,-3.06051 -0.312737,-4.53821 l -0.161237,-2.68677 1.604076,0.14991 1.604087,0.14968 1.058918,-2.68144 c 0.582506,-1.4748 0.983991,-2.80286 0.892287,-2.95122 -0.101393,-0.16395 -0.04865,-0.19684 0.134421,-0.0836 0.253402,0.15669 1.613128,-0.0534 3.306579,-0.51057 0.267142,-0.0721 0.547648,-0.76088 0.851249,-2.09022 0.83672,-3.66349 1.244755,-3.37676 1.447189,1.01698 0.08218,1.78438 0.261201,3.14478 0.442487,3.36323 0.231339,0.27876 0.926007,0.36682 2.893312,0.36682 h 2.588874 l -0.615155,1.63429 c -0.71011,1.88663 -0.758402,2.44481 -0.248107,2.86832 0.31495,0.26139 0.227883,0.52352 -0.613584,1.84717 -1.045696,1.64493 -1.407744,1.85284 -3.297139,1.8934 -1.073006,0.0241 -1.270629,0.13564 -2.541822,1.44794 -1.169465,1.20731 -1.402632,1.60592 -1.538494,2.63009 l -0.160125,1.20711 -1.487628,-0.75097 c -0.818152,-0.4131 -1.647657,-0.75103 -1.843307,-0.75103 -0.195649,0 -1.163946,1.02322 -2.151771,2.2738 -2.151799,2.72418 -2.2086,3.19312 -0.450755,3.72094 l 1.19011,0.35737 v 2.41344 c 0,1.55065 0.111953,2.55627 0.313189,2.81298 0.172263,0.21979 1.084126,0.57061 2.02638,0.77974 0.942251,0.20916 1.771241,0.43827 1.842202,0.50926 0.07097,0.0709 0.04941,0.70767 -0.04791,1.41497 -0.139957,1.0176 -0.301162,1.34257 -0.772552,1.55734 -1.184719,0.53982 -1.034702,1.13938 0.725438,2.89953 l 1.636016,1.63601 -3.41966,3.59258 -3.419661,3.59259 h -1.140989 c -0.985301,0 -1.403493,0.18933 -3.064747,1.38731 l -1.923758,1.38737 -1.751355,-0.0444 -1.751351,-0.0444 -2.157065,1.95833 c -1.186386,1.0771 -2.257768,2.1465 -2.380852,2.37649 -0.123079,0.22995 -0.155603,1.62206 -0.07227,3.0935 0.146029,2.57885 0.129803,2.69895 -0.45032,3.32974 -1.051723,1.14359 -2.532382,2.08975 -3.270194,2.08975 -0.600313,0 -0.71406,-0.10274 -0.71406,-0.64561 0,-0.9075 -1.261631,-2.11041 -2.213404,-2.11041 -1.449387,0 -2.602302,2.29666 -2.161158,4.30518 0.104461,0.47564 0.735995,1.39383 1.534254,2.23073 l 1.356708,1.42236 -1.826338,1.65586 -1.826344,1.65586 -1.915263,-0.15668 c -2.969211,-0.24296 -3.03232,-0.20553 -4.467555,2.65458 l -1.246287,2.48352 -0.172384,8.69125 -0.172386,8.69125 -1.692104,3.16443 c -1.047277,1.95853 -2.834941,6.12427 -4.691064,10.93148 -1.64943,4.27188 -3.613921,9.2966 -4.365537,11.16605 -1.009659,2.51123 -1.384542,3.16411 -1.234989,3.56837 0.111328,0.30098 -0.06156,-0.0314 -0.138918,-0.0314 -0.07735,0 0.07189,-0.29628 0.224132,0.13638 z M 6.2552879,235.59034 c 0.1722641,-0.0694 0.4541241,-0.0694 0.6263754,0 0.1722651,0.0694 0.031308,0.12647 -0.313185,0.12647 -0.3445073,0 -0.485444,-0.0567 -0.3131904,-0.12647 z M 43.669693,163.20109 c 0.01209,-0.29187 0.07141,-0.35123 0.151372,-0.15137 0.07236,0.18087 0.06347,0.39697 -0.01982,0.48024 -0.08326,0.0831 -0.142475,-0.0649 -0.131593,-0.32885 z"
     id="path645"
     sodipodi:nodetypes="csccccccscsscscsssssscsccssssssscssssscssccsssssssssscscsssssssssssssssssscccccssssssssssscsssssssssscscssssssssscssssssssssscscccscsssssscsssssscsssscsssscsscccsscccssssssssscccsscccssssscccsscsssss"
     inkscape:label="CUAJ" />
  <path
     style="fill:url(#linearGradient3150);fill-opacity:1.0;stroke-width:0.250992"
     d="m 132.11391,138.80803 -1.331,-1.66223 -2.18616,-0.26737 c -1.72068,-0.21042 -2.32036,-0.39341 -2.81646,-0.85944 -0.34665,-0.32568 -0.6303,-0.73315 -0.6303,-0.9055 0,-0.1724 1.07299,-1.58496 2.38442,-3.13912 l 2.38441,-2.82574 v -2.68857 c 0,-2.88128 0.0519,-2.99326 1.38304,-2.99326 0.99731,0 1.31174,-0.58999 1.50003,-2.81464 0.17466,-2.06359 0.18554,-2.08938 1.39892,-3.33462 1.12993,-1.15953 1.33535,-1.57936 2.70212,-5.52179 l 1.47922,-4.26684 0.1632,-4.5008 c 0.18476,-5.100709 0.0585,-4.778504 2.55873,-6.526256 l 1.53137,-1.070506 1.3752,0.69538 c 0.90612,0.458186 1.98505,0.755469 3.16309,0.871541 l 1.78786,0.176149 1.20554,-1.662277 1.20553,-1.662258 h 4.18072 4.18069 l 3.42583,2.026157 c 2.62716,1.553827 3.39645,2.124314 3.29978,2.447146 -0.74203,2.478714 -1.90413,6.873124 -1.90413,7.200434 0,0.22891 0.49992,1.05611 1.11093,1.83821 l 1.11091,1.42199 -1.10753,13.05151 c -0.60917,7.17833 -1.10906,13.2388 -1.11094,13.46772 -0.001,0.28517 -0.49271,0.58142 -1.55804,0.9412 -1.45229,0.49043 -2.10108,0.52524 -9.85138,0.52834 l -8.29672,0.001 -5.7039,1.84717 -5.70391,1.84719 -1.33101,-1.66224 z"
     id="path660"
     inkscape:label="CUAU" />
  <path
     style="fill:url(#linearGradient3152);fill-opacity:1.0;stroke-width:0.251924"
     d="m 203.55164,104.53232 c -3.11755,-1.23087 -5.80455,-2.24142 -5.97113,-2.24563 -0.16671,-0.006 -1.06911,0.67249 -2.00565,1.50383 -0.93652,0.83135 -1.7718,1.51155 -1.85617,1.51155 -0.0845,0 -1.22245,-0.79117 -2.52897,-1.75816 -1.30656,-0.967 -2.55131,-1.76055 -2.76612,-1.76347 -0.21463,-0.003 -1.02639,0.56138 -1.80344,1.25401 l -1.41291,1.25925 -3.87977,-0.8691 -3.87975,-0.86911 -8.17253,-4.861788 -8.17251,-4.861763 -4.64468,-0.126152 -4.64474,-0.125853 -4.80239,-13.099965 c -2.64129,-7.20499 -4.81373,-13.241688 -4.82755,-13.414881 -0.0772,-0.963831 -0.1226,-1.086914 -0.34996,-0.946494 -0.14041,0.08686 -0.18622,-0.0094 -0.10512,-0.221082 0.17137,-0.447006 -1.17159,-4.710558 -1.43306,-4.548969 -0.0996,0.06159 -0.11704,-0.132641 -0.0381,-0.431617 0.0968,-0.369716 0.0496,-0.486521 -0.14635,-0.365133 -0.1845,0.11406 -0.23668,0.04314 -0.14464,-0.196565 0.17137,-0.447006 -1.17157,-4.710557 -1.43305,-4.548969 -0.0998,0.0616 -0.12556,-0.100947 -0.0574,-0.361233 0.10389,-0.398092 -0.16416,-0.560613 -1.68964,-1.023992 -0.99738,-0.302951 -1.97644,-0.488241 -2.1757,-0.411753 -0.19937,0.07648 -0.3016,0.04114 -0.22779,-0.07855 0.18537,-0.300235 -2.00471,-0.884444 -2.41868,-0.645157 -0.19046,0.109952 -0.24688,0.09723 -0.13107,-0.02969 0.11199,-0.122801 -0.17094,-0.349058 -0.62983,-0.503162 -0.82303,-0.276566 -0.83601,-0.305114 -1.03291,-2.27264 -0.10947,-1.095922 -0.33639,-2.181457 -0.50385,-2.412305 -0.16756,-0.230839 -0.6775,-0.87692 -1.13345,-1.435715 l -0.82906,-1.015992 2.96875,0.997362 c 1.63281,0.54855 3.11709,0.940446 3.29839,0.870881 0.20064,-0.07695 0.2596,-0.01358 0.15102,0.162248 -0.12133,0.196396 -0.005,0.243267 0.3652,0.146597 0.34825,-0.09111 0.48405,-0.04586 0.37795,0.125939 -0.10601,0.171793 0.0297,0.217054 0.37794,0.125939 0.29905,-0.07818 0.48937,-0.05446 0.42333,0.05276 -0.11704,0.189354 2.83527,1.269639 3.46976,1.269639 0.17391,0 1.10444,-0.794149 2.06763,-1.764784 l 1.75127,-1.764785 -0.42903,-0.69146 c -0.23583,-0.380321 -0.55373,-0.660308 -0.70608,-0.622235 -0.15229,0.03817 -0.20913,-0.04072 -0.1264,-0.174636 0.0827,-0.134125 -0.249,-0.868357 -0.73707,-1.631633 -0.48824,-0.763284 -0.88772,-1.457481 -0.88772,-1.542655 0,-0.08518 0.28292,-0.525734 0.62859,-0.979008 0.34571,-0.453281 0.5441,-0.917351 0.44085,-1.031276 -0.10311,-0.11393 -0.0552,-0.131158 0.1069,-0.03817 0.35971,0.206067 1.40112,-1.049393 1.17447,-1.416121 -0.0888,-0.143671 -0.0424,-0.186767 0.10646,-0.0957 0.32452,0.200637 1.63727,-1.292155 1.43044,-1.626821 -0.0806,-0.130266 -0.053,-0.220616 0.0615,-0.200765 0.56811,0.0987 0.55526,-0.09693 -0.0593,-0.902868 -0.36904,-0.483598 -0.78894,-0.80618 -0.9335,-0.716838 -0.14465,0.08933 -0.19004,0.04488 -0.10144,-0.09879 0.21971,-0.355674 -0.8118,-1.626853 -1.15039,-1.417584 -0.14888,0.092 -0.20104,0.05489 -0.1162,-0.08251 0.21846,-0.353258 -0.55788,-1.383235 -0.88849,-1.178921 -0.15228,0.09412 -0.20191,0.05329 -0.11199,-0.09213 0.18792,-0.303798 -0.78735,-1.641925 -1.06944,-1.467596 -0.10434,0.06452 -0.18961,-0.04275 -0.18961,-0.238432 0,-0.195631 0.11368,-0.285432 0.2528,-0.199493 0.15229,0.09404 0.18664,-0.01569 0.0871,-0.276098 -0.112,-0.291326 -0.0708,-0.373491 0.12598,-0.25192 0.19682,0.121527 0.23754,0.03945 0.12598,-0.251921 -0.0911,-0.237753 -0.0754,-0.376374 0.0339,-0.30804 0.27486,0.1698 2.88955,-4.814123 2.69277,-5.13253 -0.19554,-0.316608 0.62664,-0.01654 2.3596,0.861929 l 1.25989,0.638435 0.51584,-0.655825 c 0.28379,-0.360681 0.44324,-0.773384 0.35462,-0.917061 -0.0945,-0.15296 -0.0381,-0.185367 0.13489,-0.07822 0.35546,0.219641 1.14601,-1.495486 0.8845,-1.918635 -0.0951,-0.15385 -0.0632,-0.21192 0.0708,-0.129034 0.32153,0.198642 2.19826,-4.2467 1.95746,-4.636314 -0.10981,-0.17807 -0.0794,-0.234911 0.0755,-0.139258 0.33509,0.207 0.93425,-1.213075 0.6833,-1.619088 -0.11414,-0.184985 -0.084,-0.240934 0.0771,-0.141464 0.31389,0.19402 0.89005,-1.279854 0.65132,-1.666134 -0.0891,-0.14405 -0.0474,-0.191263 0.092,-0.104898 0.13955,0.08632 0.36861,-0.09455 0.50893,-0.401952 0.13999,-0.307404 0.9505,-1.3913327 1.80073,-2.4087231 0.85018,-1.0173847 1.47144,-1.9701645 1.3805,-2.1172831 -0.0928,-0.150287 -0.0467,-0.1941893 0.10512,-0.1002336 0.33849,0.2092484 1.37018,-1.0619247 1.15036,-1.417579 -0.0891,-0.1443486 -0.0424,-0.1863844 0.10903,-0.093957 0.3385,0.2092911 1.37023,-1.0619267 1.15041,-1.4175849 -0.0891,-0.1443483 -0.0424,-0.1863847 0.10947,-0.093956 0.347,0.2143382 1.36499,-1.0632671 1.14896,-1.4416445 -0.0895,-0.1569044 -0.0691,-0.2000427 0.0458,-0.095784 0.115,0.1042201 0.41274,0.00504 0.66168,-0.2202777 0.40595,-0.3673401 0.81269,-0.3796836 3.92525,-0.1192767 1.90982,0.1597463 3.60913,0.3061313 3.77625,0.3252617 0.16713,0.019095 0.24476,0.130266 0.17265,0.246958 -0.21761,0.3523243 0.16925,1.2351531 0.46227,1.0541429 0.16331,-0.1009159 0.1998,-0.050902 0.0916,0.124539 -0.25451,0.4119639 0.0823,1.339099 0.4123,1.1350513 0.16332,-0.1009125 0.20022,-0.0509 0.0915,0.1245392 -0.25451,0.4120055 0.0823,1.3390991 0.4123,1.1350554 0.16331,-0.1009142 0.19978,-0.050901 0.0916,0.1245392 -0.25451,0.4119636 0.0823,1.3390985 0.4123,1.1350551 0.16331,-0.1009132 0.20021,-0.050901 0.0917,0.1245392 -0.25451,0.4119636 0.0823,1.3390975 0.4123,1.1350548 0.16331,-0.1009129 0.19979,-0.050901 0.0916,0.1245392 -0.25451,0.4119636 0.0823,1.3390978 0.4123,1.1350551 0.1633,-0.1009142 0.2002,-0.050901 0.0916,0.1245382 -0.25449,0.4119653 0.0823,1.3391003 0.41232,1.1350563 0.1633,-0.100914 0.19978,-0.0509 0.0916,0.124539 -0.2545,0.411964 0.0823,1.3391 0.4123,1.135052 0.16331,-0.100914 0.20022,-0.0509 0.0915,0.124539 -0.25451,0.411963 0.0823,1.3391 0.4123,1.135056 0.16333,-0.100914 0.1998,-0.0509 0.0917,0.124539 -0.25452,0.412007 0.0823,1.339099 0.41229,1.135055 0.16332,-0.100913 0.20022,-0.0509 0.0916,0.12454 -0.2545,0.411964 0.0823,1.339095 0.4123,1.135052 0.1633,-0.100913 0.1998,-0.0509 0.0917,0.124539 -0.2545,0.412007 0.0823,1.339098 0.4123,1.13506 0.1633,-0.100915 0.20021,-0.0509 0.0916,0.124538 -0.2545,0.411964 0.0823,1.3391 0.41231,1.135056 0.16331,-0.100915 0.19979,-0.0509 0.0916,0.12454 -0.20912,0.338071 0.0547,1.355922 0.31051,1.198283 0.0942,-0.0579 0.17814,0.330946 0.18706,0.864132 0.009,0.533194 -0.0671,0.917956 -0.16883,0.855024 -0.27868,-0.172343 -1.25073,1.169699 -1.06486,1.470447 0.0891,0.144348 0.0424,0.186385 -0.10948,0.09396 -0.33849,-0.209292 -1.37017,1.061926 -1.15037,1.417585 0.0891,0.144348 0.0424,0.186384 -0.10902,0.09396 -0.3385,-0.209248 -1.3702,1.061932 -1.15038,1.417585 0.0888,0.143672 0.0429,0.187954 -0.10221,0.09837 -0.32534,-0.201146 -2.86919,2.852832 -2.65917,3.192647 0.0835,0.13489 0.0297,0.169926 -0.11921,0.07793 -0.33849,-0.209248 -1.37018,1.061927 -1.15038,1.417585 0.0891,0.14435 0.0424,0.186386 -0.10947,0.09396 -0.3385,-0.209291 -1.37022,1.061927 -1.15041,1.417586 0.0891,0.144348 0.0424,0.186384 -0.10903,0.09396 -0.3385,-0.20929 -1.37019,1.061927 -1.15037,1.417585 0.0888,0.143669 0.0429,0.187954 -0.10222,0.09837 -0.32535,-0.201187 -2.86921,2.85283 -2.65918,3.192641 0.0831,0.13489 0.0297,0.169926 -0.11922,0.07792 -0.3385,-0.209248 -1.37019,1.06193 -1.15039,1.417591 0.0888,0.143669 0.0458,0.189692 -0.0959,0.102308 -0.14126,-0.08742 -0.435,0.03733 -0.6523,0.277627 -0.36014,0.398051 -0.2965,1.148167 0.7209,8.496446 0.61377,4.432929 1.1165,8.072812 1.11719,8.088625 0.009,0.197244 2.33554,0.841281 2.5534,0.706651 0.179,-0.110622 0.22991,-0.07517 0.12811,0.08924 -0.20404,0.330139 0.72305,0.666905 1.13506,0.412261 0.1756,-0.108424 0.22523,-0.07169 0.12469,0.09158 -0.20402,0.33014 0.72308,0.666901 1.13504,0.412261 0.17179,-0.106214 0.22565,-0.07185 0.1298,0.08306 -0.0985,0.159491 1.13018,0.783232 3.10142,1.574268 2.83431,1.137359 3.62938,1.345472 6.03072,1.578523 l 2.76598,0.268422 2.27599,-0.954427 c 1.31677,-0.552168 2.2087,-1.063369 2.11628,-1.212905 -0.0879,-0.142143 -0.0424,-0.185622 0.10222,-0.09659 0.1442,0.08903 0.6187,0.03733 1.05481,-0.114566 0.66027,-0.230201 1.00343,-0.185834 2.05179,0.265155 0.69244,0.297859 1.38644,0.462778 1.54229,0.366449 0.15567,-0.09628 0.21462,-0.06397 0.13064,0.07182 -0.19724,0.31945 6.78581,3.443716 7.16853,3.207189 0.16117,-0.0996 0.22183,-0.06923 0.13699,0.06838 -0.19638,0.317584 4.52513,2.431604 4.90553,2.196495 0.15737,-0.09734 0.21718,-0.06553 0.13275,0.07084 -0.19637,0.317586 4.52509,2.431607 4.90554,2.196496 0.16415,-0.101382 0.21717,-0.06516 0.12428,0.08492 -0.0891,0.143882 0.17942,0.402887 0.59627,0.575571 0.41698,0.172683 0.82975,0.43008 0.91745,0.572007 0.0879,0.14193 0.0382,0.184009 -0.1069,0.09354 -0.33129,-0.204879 -1.39105,1.536509 -1.16124,1.908384 0.0928,0.150625 0.0513,0.199407 -0.0942,0.109607 -0.29184,-0.180362 -2.00078,2.49566 -1.88198,2.946966 0.24476,0.929833 12.01122,24.300102 12.18158,24.194812 0.11416,-0.07054 0.13276,0.06618 0.0424,0.304048 -0.11199,0.291332 -0.0708,0.373499 0.12597,0.252051 0.19682,-0.121567 0.23755,-0.03943 0.12598,0.252047 -0.112,0.291331 -0.0707,0.373449 0.12599,0.252051 0.19682,-0.121577 0.23753,-0.03943 0.12597,0.252037 -0.11199,0.291331 -0.0708,0.373449 0.12599,0.25205 0.19682,-0.121567 0.23753,-0.03943 0.12598,0.252048 -0.11148,0.291331 -0.0708,0.373449 0.12598,0.25205 0.19683,-0.121577 0.23755,-0.03943 0.12598,0.25204 -0.11199,0.291371 -0.0707,0.373496 0.12598,0.252051 0.19682,-0.121567 0.23755,-0.03943 0.126,0.252045 -0.112,0.29137 -0.0707,0.37349 0.12597,0.25205 0.19681,-0.12158 0.23755,-0.0394 0.12598,0.25204 -0.112,0.29133 -0.0708,0.37345 0.12598,0.25205 0.19682,-0.12157 0.23754,-0.0394 0.12598,0.25205 -0.11199,0.29133 -0.0708,0.37345 0.12599,0.25205 0.19681,-0.12157 0.23754,-0.0394 0.12598,0.25204 -0.112,0.29133 -0.0707,0.37345 0.12597,0.25205 0.19683,-0.12156 0.23755,-0.0394 0.12599,0.25205 -0.11199,0.29133 -0.0708,0.37349 0.12599,0.25205 0.19681,-0.12156 0.23753,-0.0394 0.12598,0.25204 -0.12133,0.31653 -0.0763,0.37707 0.16755,0.22593 0.21971,-0.13591 0.27359,-0.10869 0.15694,0.0795 -0.0971,0.15713 -0.0487,0.52446 0.10735,0.8163 0.1561,0.29187 0.23754,0.57701 0.18113,0.6337 -0.0831,0.0829 -7.40098,1.81895 -9.38481,2.22622 -0.277,0.0568 -3.05457,-0.90366 -6.17213,-2.1345 z m 16.81163,0.48658 c 0.17094,-0.17235 0.37413,-0.24946 0.45171,-0.17205 0.0777,0.0774 -0.0624,0.2185 -0.31092,0.31305 -0.35886,0.13675 -0.38813,0.10783 -0.14083,-0.14108 z M 140.33898,64.595619 c 0.0127,-0.293491 0.0717,-0.353174 0.1523,-0.152197 0.073,0.181845 0.0641,0.399154 -0.0211,0.482848 -0.0835,0.08373 -0.14339,-0.06507 -0.13237,-0.330648 z"
     id="path682"
     sodipodi:nodetypes="ccssscscccccccssssssssssssssssssscssssssssscsssssssssssssssssssssssssssscssssssssssssssssssssscsssssssssssssssssssssssssssssscssssssssssssssssssssscsssssssscssssssssssssssssssssscscscscscscscscscscsscscscccscccsssss"
     inkscape:label="GAM" />
  <path
     style="fill:url(#linearGradient3154);fill-opacity:1.0;stroke-width:0.254531"
     d="m 163.72142,156.86042 c -1.67991,-0.4922 -3.08482,-0.9252 -3.122,-0.96222 -0.0372,-0.037 0.56412,-2.94691 1.33628,-6.46643 0.77216,-3.51951 1.40393,-6.71097 1.40393,-7.09211 0,-0.43237 -0.24018,-0.88805 -0.63864,-1.21162 -0.57803,-0.46941 -0.61972,-0.62679 -0.43936,-1.65831 0.18827,-1.07674 0.26921,-1.1662 1.46586,-1.62021 1.16352,-0.44142 1.76917,-0.46722 7.44246,-0.31694 l 6.17589,0.16359 1.23896,-1.1589 1.23896,-1.1589 7.47526,0.13792 c 4.11139,0.0758 8.59636,0.19421 9.96659,0.26302 3.0411,0.15275 2.61055,0.51943 6.38431,-5.43773 l 2.76688,-4.36772 h 4.11056 4.11057 l -0.43298,6.55419 c -0.6106,9.24282 -0.58753,8.02045 -0.6669,8.8983 -0.0615,0.67896 0.0815,-0.0349 -0.15031,0.79814 -0.34243,1.23029 -0.67882,1.87913 -0.28868,0.5376 0.21456,-0.73777 0.24462,-0.66285 0.0956,-0.10551 -0.0792,0.2965 -0.52563,1.89247 -0.70409,4.37456 -0.42137,5.86066 -0.25584,5.41402 -2.00656,5.41402 -1.43128,0 -1.58198,-0.0736 -7.30853,-3.56795 -3.21592,-1.96237 -5.96364,-3.52373 -6.10605,-3.46971 -0.14236,0.054 -1.60136,0.41499 -3.24211,0.80211 l -2.98317,0.70385 -2.09023,4.29305 c -1.70449,3.50078 -2.18735,4.29267 -2.61653,4.29113 -0.28946,-10e-4 -4.13428,-0.34381 -8.54403,-0.7617 -8.993,-0.85222 -10.06771,-0.89849 -10.3482,-0.44543 -0.10825,0.17499 -0.16494,1.03404 -0.12584,1.90898 0.0391,0.87495 -0.0222,1.58296 -0.13624,1.57335 -0.11406,-0.009 -1.58188,-0.4202 -3.26178,-0.9124 z"
     id="path705"
     sodipodi:nodetypes="sssssssscccssscccsssssssssscssssssss"
     inkscape:label="IZTAC" />
  <path
     style="fill:url(#linearGradient3156);fill-opacity:1.0;stroke-width:0.248359"
     d="m 205.29385,222.9962 -1.73851,-0.65932 -8.49251,-10.17342 -8.49255,-10.1734 0.14633,-2.40043 c 0.13753,-2.25431 0.11472,-2.41724 -0.37005,-2.67672 -0.34921,-0.18683 -0.72068,-0.19846 -1.14722,-0.0361 -0.59627,0.22652 -0.84958,-0.004 -4.61092,-4.20656 l -3.97994,-4.44648 v -1.64615 c 0,-0.90538 -0.12992,-1.89027 -0.28908,-2.18863 -0.15916,-0.29831 -1.44427,-1.87407 -2.85615,-3.50161 l -2.56703,-2.95916 v -2.93365 c 0,-3.59811 0.093,-3.50911 -4.09795,-3.91628 -1.63917,-0.15918 -3.28636,-0.34961 -3.66038,-0.42335 -0.5797,-0.11391 -0.75748,-0.002 -1.20424,0.75452 l -0.52413,0.88838 h -1.83818 c -1.011,0 -1.83815,-0.0789 -1.83815,-0.17522 0,-0.27102 3.02361,-14.09567 3.10119,-14.17942 0.0361,-0.0409 1.83277,0.43239 3.98915,1.0514 2.94214,0.84452 4.00323,1.05685 4.25159,0.85073 0.2209,-0.18363 0.33076,-0.88406 0.33076,-2.10985 v -1.83522 l 0.93135,0.13032 c 0.51223,0.0718 4.55678,0.46691 8.98788,0.87846 6.78879,0.63056 8.10961,0.69518 8.39397,0.41083 0.18561,-0.18561 1.25411,-2.17215 2.37454,-4.41463 l 2.03713,-4.07724 2.37859,-0.57661 2.3786,-0.5766 5.48445,3.37065 5.48445,3.37067 h 2.51213 c 2.3783,0 2.52305,-0.028 2.7187,-0.55882 0.1134,-0.30752 0.35041,-2.64967 0.52618,-5.2052 0.30751,-4.47045 0.33757,-4.63666 0.8001,-4.38924 0.26421,0.14154 0.64518,0.19406 0.84648,0.11668 0.20127,-0.0773 0.30671,-0.0445 0.23414,0.0731 -0.1772,0.28707 3.53274,1.82828 3.88161,1.61266 0.15718,-0.0971 0.20528,-0.0574 0.11261,0.0925 -0.19124,0.30953 1.26178,0.87749 1.64257,0.64214 0.14194,-0.0878 0.18804,-0.0461 0.10223,0.0927 -0.19565,0.31671 5.20898,2.63879 5.59138,2.40245 0.15676,-0.0971 0.20769,-0.0594 0.11747,0.0871 -0.20408,0.32996 1.19589,0.92106 1.59619,0.67363 0.18162,-0.11221 0.23734,-0.0826 0.14072,0.0738 -0.19606,0.31714 1.74148,1.13764 2.12581,0.90013 0.15275,-0.0947 0.19966,-0.053 0.10828,0.0955 -0.19124,0.30952 1.26173,0.87747 1.64252,0.64213 0.14193,-0.0878 0.18644,-0.0433 0.0986,0.0982 -0.20409,0.32996 1.19592,0.92102 1.59618,0.67363 0.1744,-0.10788 0.23774,-0.0826 0.14994,0.059 -0.19806,0.32074 5.18243,2.65926 5.56889,2.42042 0.1716,-0.10578 0.22973,-0.0766 0.13912,0.0697 -0.19566,0.31674 5.20897,2.63882 5.59134,2.40246 0.15677,-0.0971 0.20768,-0.0594 0.11746,0.0871 -0.20409,0.32997 1.19594,0.92102 1.59618,0.67364 0.18162,-0.11222 0.23736,-0.0826 0.14073,0.0738 -0.19605,0.31713 1.74152,1.13763 2.12581,0.90012 0.15076,-0.0935 0.20007,-0.053 0.11104,0.0906 -0.20408,0.33036 1.19593,0.92102 1.59617,0.67365 0.18043,-0.11144 0.23735,-0.0826 0.14234,0.0713 -0.20407,0.32996 1.19594,0.92101 1.59618,0.67364 0.17441,-0.10789 0.23776,-0.0826 0.14995,0.0594 -0.19806,0.32074 5.18242,2.65924 5.56888,2.42042 0.18603,-0.1151 0.22975,-0.0762 0.11787,0.10427 -0.0974,0.15756 -0.0803,0.28667 0.04,0.28667 0.11865,0 0.40783,0.14072 0.64287,0.31232 0.40216,0.29429 0.39731,0.39932 -0.0822,1.79339 -0.28025,0.81454 -0.45243,1.62971 -0.38248,1.8115 0.0777,0.20247 0.0159,0.2626 -0.15798,0.15476 -0.19365,-0.11984 -0.23975,-0.004 -0.14432,0.36003 0.0769,0.29468 0.0553,0.48356 -0.0481,0.4196 -0.10342,-0.064 -0.33639,0.33238 -0.51712,0.88042 l -0.32876,0.99667 1.57678,1.59088 c 0.86721,0.87501 1.65645,1.54162 1.75391,1.48141 0.2101,-0.12992 0.77945,0.49808 0.60762,0.66988 -0.19366,0.19365 4.10219,4.67352 4.4225,4.61174 0.16198,-0.0321 0.27184,0.0682 0.24377,0.22052 -0.0694,0.37567 4.35627,5.06627 4.71266,4.99486 0.15556,-0.0321 0.28787,0.083 0.29427,0.25419 0.0119,0.37047 4.30688,5.04581 4.55699,4.96244 0.095,-0.0321 0.19484,0.0321 0.22091,0.14113 0.028,0.10946 0.73626,0.97559 1.57777,1.92479 0.84156,0.94917 1.49063,1.73783 1.44239,1.75255 -0.0481,0.0159 -2.03889,0.33116 -4.42375,0.70335 l -4.33613,0.67662 -1.00362,-0.69491 -1.00357,-0.69487 -8.20958,-0.16961 -8.20957,-0.16959 -8.80303,3.23691 c -4.84168,1.7803 -9.45442,3.42308 -10.2506,3.65063 -0.95217,0.27223 -2.81429,1.29244 -5.44122,2.98132 l -3.99366,2.56753 -0.76775,-0.46817 c -1.21073,-0.73828 -1.74478,-0.61447 -2.25793,0.5234 -0.24657,0.54639 -0.52184,0.99347 -0.61214,0.99347 -0.0902,0 -0.48541,-0.33517 -0.87799,-0.74508 -1.22891,-1.28268 -1.60393,-1.07048 -3.40102,1.92479 l -1.60187,2.66984 -1.86522,-0.0757 c -1.40281,-0.0568 -1.93978,0.0159 -2.16594,0.28667 -0.23657,0.28507 -0.19846,1.30544 0.17922,4.78572 l 0.4799,4.42329 -1.52479,2.17114 c -0.83861,1.19412 -1.69244,2.16425 -1.89732,2.15583 -0.20486,-0.007 -1.15487,-0.31193 -2.11105,-0.6746 z"
     id="path730"
     inkscape:label="IZTAP"
     sodipodi:nodetypes="ccccsssccssscsssscsssssscsssscccccssssssssssssssssssscscscscssscscssssscscsscsssssscscssscccccssscssssscscscsccc" />
  <path
     style="fill:url(#linearGradient3158);fill-opacity:1.0;stroke-width:0.248708"
     d="m 217.27025,398.02656 c -0.65459,-0.34065 -1.31541,-0.54207 -1.46851,-0.44764 -0.15311,0.0948 -0.21292,0.0665 -0.13339,-0.0624 0.19567,-0.31634 -2.23129,-1.65923 -2.59375,-1.43522 -0.15766,0.0972 -0.22051,0.07 -0.13935,-0.0607 0.1977,-0.31987 -2.72396,-1.90848 -3.09149,-1.68134 -0.15917,0.0984 -0.22406,0.073 -0.14403,-0.0559 0.19567,-0.31631 -2.23134,-1.65923 -2.59375,-1.4352 -0.15765,0.0973 -0.22051,0.07 -0.13934,-0.0607 0.19771,-0.31936 -2.72396,-1.90843 -3.09149,-1.68132 -0.16525,0.10194 -0.22254,0.071 -0.13339,-0.073 0.20226,-0.32748 -2.22683,-1.65132 -2.60343,-1.41857 -0.15815,0.0977 -0.22154,0.0705 -0.14043,-0.0603 0.19771,-0.31935 -2.72397,-1.90842 -3.0915,-1.68127 -0.16526,0.10184 -0.22253,0.071 -0.1334,-0.073 0.20227,-0.32748 -2.22682,-1.65138 -2.60343,-1.41858 -0.15815,0.0978 -0.22151,0.0705 -0.14043,-0.0603 0.1972,-0.31885 -5.46274,-3.39883 -5.82929,-3.17229 -0.15766,0.0973 -0.22204,0.072 -0.14249,-0.0568 0.19569,-0.31632 -2.23133,-1.65921 -2.59379,-1.43521 -0.15765,0.0972 -0.22052,0.07 -0.13934,-0.0607 0.19769,-0.31986 -2.72392,-1.90842 -3.09151,-1.68128 -0.15917,0.0984 -0.22405,0.073 -0.14404,-0.0557 0.19569,-0.31632 -2.23129,-1.65923 -2.59374,-1.43526 -0.15766,0.0972 -0.22051,0.07 -0.13934,-0.0607 0.19769,-0.31988 -2.72392,-1.90844 -3.09148,-1.68127 -0.16528,0.10185 -0.22256,0.071 -0.13341,-0.073 0.20226,-0.32747 -2.22683,-1.65131 -2.60343,-1.4186 -0.15816,0.0978 -0.22151,0.0705 -0.14044,-0.0603 0.1977,-0.31987 -2.72391,-1.90843 -3.09148,-1.68126 -0.16526,0.10194 -0.22255,0.071 -0.1334,-0.073 0.20226,-0.32746 -2.01109,-1.18069 -2.60343,-1.41857 -0.19163,0.11854 -1.08279,-0.82432 -0.94718,-1.04388 -0.28238,-0.4471 1.12871,1.0971 0.63973,0.72674 -0.20024,-0.15154 -0.79936,-0.65724 -0.24688,-0.0506 0.0918,0.10133 -0.80504,-1.01173 -1.96089,-1.62988 -1.58571,-1.06043 -0.46638,-0.26867 -2.01397,-1.36744 l -0.88544,-1.29218 c -0.81088,-1.18348 -1.66997,-2.39934 -5.08621,-5.69229 -2.34282,-2.25826 -6.29607,-6.08997 -8.78497,-8.51489 l -4.5254,-4.4089 4.21748,-8.21028 4.21747,-8.21024 0.18352,-6.35255 0.18351,-6.35251 5.31856,3.86485 c 2.92522,2.12572 5.44343,3.86315 5.59599,3.86108 0.15262,-0.003 0.42326,-0.0964 0.60175,-0.20938 0.17845,-0.11305 5.60652,-10.03439 12.06243,-22.0472 l 11.73793,-21.84144 5.96902,-1.68827 c 3.28297,-0.92859 13.63545,-3.86642 23.0056,-6.52856 l 17.03659,-4.84023 14.62686,-0.14951 14.62686,-0.14952 3.28018,2.65666 c 1.80408,1.46117 3.38718,2.75039 3.51802,2.86499 0.14295,0.12527 -0.2119,0.67945 -0.88896,1.38812 -2.00438,2.09877 -2.04935,2.23336 -1.581,4.73267 0.22304,1.18961 0.52224,2.30378 0.66518,2.47602 0.14295,0.17237 0.66591,0.31481 1.16214,0.31634 1.58374,0.004 1.87706,0.2266 3.61909,2.72315 1.80935,2.59283 2.02944,2.7407 4.09152,2.74845 0.49577,0.001 1.13348,0.0659 1.41696,0.14201 l 0.51535,0.13842 -0.44053,3.02923 c -0.6143,4.22377 -0.63188,4.53375 -0.25295,4.45314 0.17691,-0.0354 0.25955,0.0306 0.1835,0.15514 -0.16068,0.25955 3.52228,3.35387 3.99169,3.35387 0.17339,0 0.26359,0.0842 0.19972,0.18757 -0.17233,0.27831 1.14901,1.24116 1.44892,1.05583 0.14247,-0.0883 0.18401,-0.0405 0.0927,0.10791 -0.20683,0.33407 1.04837,1.35273 1.39947,1.13572 0.14247,-0.0882 0.18401,-0.0405 0.0927,0.10792 -0.18298,0.29605 1.02877,1.36489 1.33388,1.17627 0.10585,-0.0655 0.20936,1.21728 0.23066,2.85019 l 0.0405,2.96903 -0.87953,0.16525 c -0.5187,0.0972 -0.81357,0.27171 -0.71887,0.42481 0.0978,0.15816 0.0405,0.18502 -0.14997,0.068 -0.39288,-0.24282 -3.28297,0.35536 -3.10549,0.64233 0.0725,0.11715 -0.0405,0.14702 -0.25143,0.0659 -0.42837,-0.16424 -2.88113,0.35992 -2.86688,0.61278 0.009,0.1348 1.57162,1.32689 8.13059,6.19798 0.3792,0.28187 -0.0714,0.81342 -4.15379,4.90036 l -4.5793,4.5843 0.58368,1.24622 c 0.3209,0.68542 0.67717,1.18855 0.79132,1.11799 0.11401,-0.0705 0.13387,0.0639 0.0457,0.29857 -0.12009,0.31226 -0.0756,0.37208 0.16577,0.22305 0.22254,-0.13731 0.27019,-0.10745 0.14654,0.0923 -0.22051,0.35687 1.58059,4.29808 1.87975,4.1132 0.11556,-0.0714 0.13637,0.0624 0.0457,0.29705 -0.11964,0.31227 -0.0756,0.37209 0.16576,0.22305 0.20987,-0.1298 0.26967,-0.10703 0.16475,0.0628 -0.0908,0.14654 0.13028,0.94622 0.49071,1.77713 l 0.65515,1.51069 -1.90553,15.36003 c -1.04808,8.44803 -1.9943,15.80775 -2.10278,16.35492 -0.27223,1.37386 -5.0013,7.97643 -5.71302,7.97643 -0.27677,0 -0.4831,-0.11604 -0.45877,-0.25752 0.0253,-0.14199 -0.14701,-0.2428 -0.3812,-0.22455 -0.2342,0.0204 -0.402,-0.0938 -0.37311,-0.2489 0.0306,-0.15514 -0.15108,-0.26462 -0.39946,-0.24435 -0.24838,0.0204 -0.3888,-0.0253 -0.31176,-0.10294 0.23117,-0.23113 -5.32475,-3.82191 -5.62607,-3.63565 -0.16931,0.10443 -0.20885,0.0593 -0.10036,-0.11558 0.10692,-0.17287 -0.0518,-0.37209 -0.39692,-0.49934 -1.02223,-0.37663 -10.14945,-1.83527 -10.65521,-1.70296 -0.26968,0.0705 -0.43797,0.0457 -0.3746,-0.0588 0.0639,-0.10294 -3.60167,-0.80648 -8.14491,-1.56367 l -8.26042,-1.37665 -0.68687,0.48664 c -0.37768,0.26768 -0.61232,0.60731 -0.52119,0.75477 0.0927,0.14997 0.0506,0.19668 -0.0958,0.10649 -0.31277,-0.19315 -2.70537,1.73879 -2.60718,2.1051 0.0354,0.14044 -0.0306,0.19212 -0.15714,0.11557 -0.32849,-0.20328 -1.5624,0.83993 -1.36724,1.15562 0.0908,0.14702 0.0543,0.19875 -0.0815,0.11464 -0.34877,-0.21544 -1.36563,0.55078 -1.1639,0.87714 0.0932,0.1506 0.0526,0.19923 -0.0918,0.11056 -0.3508,-0.21697 -2.84735,1.79944 -2.64118,2.133 0.0903,0.14591 0.0507,0.19466 -0.0902,0.10791 -0.29401,-0.18148 -2.44885,1.42461 -2.6642,1.98572 -0.0795,0.20785 -0.0714,0.4968 0.0204,0.64227 0.10391,0.16832 0.0457,0.19062 -0.16575,0.0607 -0.2413,-0.14906 -0.2854,-0.0894 -0.16578,0.22304 0.0902,0.23471 0.0673,0.36752 -0.0506,0.29453 -0.29099,-0.17995 -2.08023,3.78531 -1.86503,4.13353 0.11197,0.18147 0.0573,0.20682 -0.15765,0.0739 -0.24131,-0.14904 -0.28541,-0.0894 -0.16577,0.22306 0.0903,0.23469 0.0674,0.36753 -0.0506,0.29451 -0.29096,-0.17995 -2.08021,3.78538 -1.86504,4.13353 0.0964,0.15562 0.0599,0.20887 -0.0826,0.12074 -0.31579,-0.19517 -2.38219,4.23841 -2.15032,4.61364 0.0912,0.14794 0.0517,0.1982 -0.0888,0.11152 -0.32088,-0.19822 -2.14201,3.72665 -1.9063,4.10802 0.11197,0.18148 0.0573,0.20682 -0.15764,0.0739 -0.23928,-0.14811 -0.28592,-0.0903 -0.17034,0.21036 0.087,0.22762 0.13434,0.40859 0.10444,0.40251 -0.0306,-0.004 -0.58995,-0.29047 -1.24456,-0.63102 z"
     id="path755"
     inkscape:label="MA"
     sodipodi:nodetypes="ssssssscsccscccscssccssccccscccccssccssscccccscsscsscccssssssscscsccscscsscscsssscssscsscssssssscssssscssssscsscssccssssssssssssssssscscssssss" />
  <path
     style="fill:url(#linearGradient3160);fill-opacity:1.0;stroke-width:0.253654"
     d="m 52.484811,280.60235 -2.406262,-0.14528 -0.155861,-0.96408 c -0.0857,-0.53027 -0.270549,-1.07881 -0.410705,-1.21895 -0.140181,-0.14004 -1.441315,-0.37888 -2.891444,-0.53045 l -2.63659,-0.27554 -3.043848,-1.89772 c -1.674118,-1.04374 -3.61143,-2.09321 -4.305134,-2.33212 -1.234937,-0.42533 -0.172904,-0.15646 -0.866559,-0.32094 -0.676633,-0.16065 -0.04498,0.2235 -0.42261,-0.18929 -0.507142,-0.55409 -0.137946,-0.22665 -1.405644,-1.86887 -0.715321,-0.92657 -1.419586,-1.61113 -1.565044,-1.52124 -0.14741,0.0911 -0.189387,0.0419 -0.09482,-0.11071 0.09331,-0.15122 -0.09649,-0.58388 -0.421705,-0.96199 -0.557857,-0.64855 -0.644382,-0.66996 -1.527882,-0.37839 -0.552811,0.1823 -0.867558,0.42068 -0.768184,0.58147 0.100089,0.16169 0.04903,0.19836 -0.125968,0.0905 -0.392031,-0.24237 -2.082137,0.38104 -1.887421,0.69609 0.08389,0.13585 0.02759,0.16937 -0.125059,0.0754 -0.325971,-0.20151 -0.655694,0.61629 3.838336,-9.51984 l 3.418631,-7.71065 5.666081,-1.98744 5.666077,-1.98743 4.069823,-4.12608 c 2.238401,-2.26937 4.949331,-5.06056 6.024282,-6.20268 l 1.954463,-2.07659 v -2.29895 c 0,-1.26442 0.02864,-2.29758 0.06342,-2.29594 0.03492,0.002 0.691207,0.17147 1.458511,0.37748 2.600947,0.69811 2.68617,0.65956 3.783241,-1.71217 1.103504,-2.38563 1.05969,-2.69934 -0.487253,-3.48853 l -0.999161,-0.50973 0.727837,-1.96421 c 2.960763,-7.99022 3.374719,-8.91767 4.606496,-10.32059 1.198097,-1.36455 0.921765,-1.83269 -1.353221,-2.29259 -0.633046,-0.12817 -0.697553,-0.24342 -0.697553,-1.24955 v -1.10853 l 2.116468,0.13201 2.11646,0.13201 3.577328,-5.67708 c 1.967528,-3.1224 3.731926,-5.88697 3.920876,-6.14352 0.27198,-0.36924 1.14759,-0.57511 4.20381,-0.98839 2.12314,-0.28707 3.91859,-0.46364 3.98987,-0.39236 0.0713,0.0712 0.19889,0.74435 0.28354,1.49568 0.25019,2.2203 0.29154,2.2539 2.7754,2.2539 h 2.16626 l 0.93207,-2.01701 0.93207,-2.01702 3.7744,-1.81069 c 2.07593,-0.9959 4.232137,-1.9722 4.791597,-2.16959 0.55945,-0.19731 1.38634,-0.58702 1.83752,-0.86588 0.72387,-0.44736 0.85756,-0.46214 1.13693,-0.12537 0.34692,0.41803 1.6944,0.50589 2.2607,0.14737 0.19661,-0.12432 0.50622,-0.16937 0.68801,-0.0995 0.26563,0.10198 0.25763,0.23818 -0.0406,0.69336 -0.20416,0.31152 -0.57084,1.53976 -0.81484,2.72924 l -0.44364,2.16271 -2.28289,1.96763 c -1.25559,1.08219 -2.4151,2.13387 -2.57667,2.33701 -0.16159,0.20326 -0.37499,1.56043 -0.4742,3.01609 l -0.180377,2.64675 h -1.02109 c -0.95281,0 -1.19441,0.17042 -3.6128,2.55036 l -2.59171,2.55039 -0.29447,1.82515 c -0.16197,1.00382 -0.47488,2.82391 -0.69536,4.04464 l -0.40093,2.21932 h -3.00858 c -3.63301,0 -3.53372,-0.0995 -3.53372,3.53994 0,2.54952 0.003,2.55972 0.69755,2.85824 0.38365,0.16483 0.73302,0.32164 0.77638,0.34818 0.0433,0.0279 -0.62489,1.45245 -1.48499,3.16822 l -1.56383,3.11963 -0.13393,9.907 -0.13393,9.90699 -2.04281,3.42434 -2.04282,3.42435 -0.14308,3.22143 c -0.0787,1.77182 -0.25721,3.33044 -0.39673,3.4636 -0.13951,0.13306 -2.396724,1.10503 -5.016023,2.15967 -2.6193,1.05461 -4.915652,2.00717 -5.103007,2.11676 -0.187362,0.10965 -1.513486,1.49327 -2.946954,3.07483 -2.568287,2.83355 -2.616131,2.9094 -3.279801,5.19989 l -0.673494,2.32441 -3.158455,0.0175 c -1.737144,0.0105 -4.241267,-0.0471 -5.564713,-0.12677 z"
     id="path778"
     inkscape:label="MC"
     sodipodi:nodetypes="ccssscsssssssssssscscccsscscssscsssscccssscsscccsssssssscssscsscsscsscsscccccssssssccsc" />
  <path
     style="fill:url(#linearGradient3162);fill-opacity:1.0;stroke-width:0.250407"
     d="m 80.712854,151.37503 c -0.05554,-0.16661 0.242438,-1.27921 0.662207,-2.47228 1.028869,-2.92425 0.975863,-2.98403 -2.644702,-2.98403 -1.968312,0 -2.757927,-0.0876 -2.825608,-0.31301 -0.05165,-0.17221 -0.188975,-1.69236 -0.305148,-3.37821 -0.175028,-2.53999 -0.151054,-3.0882 0.139896,-3.19947 0.193115,-0.0738 1.610311,-0.9203 3.149326,-1.88097 2.792946,-1.74348 2.803664,-1.74755 5.700573,-2.15962 l 2.902366,-0.41286 4.55999,-5.11105 4.559989,-5.11106 -0.785289,-4.90177 c -0.524679,-3.27504 -0.703574,-5.0002 -0.539072,-5.19842 0.135419,-0.16308 1.195046,-0.73928 2.354715,-1.28021 2.440533,-1.13842 2.268448,-0.73272 2.557243,-6.02913 l 0.16587,-3.04232 0.75186,-0.15037 c 0.41351,-0.0827 1.01138,-0.15039 1.32857,-0.15039 0.65079,0 0.49743,0.34851 3.277,-7.447152 l 1.71783,-4.817899 3.69351,-0.05469 c 2.03143,-0.03001 4.22875,-0.05931 4.88292,-0.06513 l 1.18945,-0.01124 0.20777,1.782292 0.20777,1.782272 1.72637,1.54567 c 0.94953,0.850132 2.15187,1.725948 2.67193,1.946291 0.52004,0.220334 3.25394,1.342643 6.07535,2.494026 4.80621,1.96132 5.24456,2.09339 6.94879,2.09339 h 1.819 l 7.4e-4,2.19106 c 5e-4,2.01308 -0.11474,2.52672 -1.42142,6.3228 -1.37965,4.00848 -1.46082,4.16689 -2.72194,5.31162 l -1.2999,1.17991 -0.17557,2.01232 c -0.16792,1.92537 -0.20454,2.01815 -0.84698,2.14721 -2.05467,0.41278 -1.91582,0.16009 -1.99343,3.62779 l -0.0699,3.12444 -2.62193,3.09197 c -1.44208,1.70056 -2.62196,3.23637 -2.62196,3.41294 0,0.17651 0.51302,0.98253 1.14001,1.79101 1.22788,1.58324 1.47215,1.6988 4.15281,1.96485 1.55775,0.15467 1.71235,0.22768 2.46662,1.16626 0.44259,0.55073 0.74902,1.05702 0.68097,1.12505 -0.0681,0.0681 -2.12006,0.72219 -4.56002,1.4537 -5.66362,1.69794 -5.44447,1.75512 -7.27894,-1.89942 -0.73648,-1.46719 -1.48445,-2.71968 -1.66212,-2.78324 -0.46577,-0.16662 -1.1182,0.22319 -2.90401,1.73503 l -1.57928,1.337 h -4.22479 c -4.72819,0 -5.01178,0.0935 -5.01178,1.65031 0,0.97829 -0.0458,0.97937 -2.73108,0.0636 -2.105643,-0.7182 -2.240206,-0.66889 -3.84462,1.40928 l -1.442347,1.86824 -4.460802,-0.15468 -4.460806,-0.15468 -0.502861,0.72651 c -0.276578,0.39956 -1.034727,1.71247 -1.684783,2.91756 l -1.181916,2.19105 h -1.593703 c -1.024396,0 -1.629749,-0.10821 -1.694682,-0.30304 z m 20.780496,-48.19141 c 0.17221,-0.0695 0.45384,-0.0695 0.62601,0 0.1722,0.0695 0.0313,0.12632 -0.31302,0.12632 -0.34431,0 -0.48516,-0.0569 -0.31299,-0.12632 z"
     id="path801"
     sodipodi:nodetypes="sssssssscccsssscssscsscccssssccsscssccsssssssssscsssscccsscsssssss"
     inkscape:label="MH" />
  <path
     style="fill:url(#linearGradient3164);fill-opacity:1.0;stroke-width:0.249196"
     d="m 279.56812,287.60089 c -2.93471,-0.33412 -2.64979,-0.16416 -4.36858,-2.6035 -1.83739,-2.60746 -2.25686,-2.96003 -3.52183,-2.96003 -1.0914,0 -1.10022,-0.0102 -1.31322,-1.61976 l -0.16485,-1.24596 1.63165,-1.95673 c 1.61692,-1.93905 1.79522,-2.2843 1.44095,-2.79027 -0.10082,-0.14373 -2.019,-1.75804 -4.26294,-3.58711 l -4.07993,-3.32566 -13.53595,0.12773 -13.53596,0.12772 1.75657,-2.52139 c 0.96618,-1.38677 1.99417,-2.87574 2.28444,-3.30886 0.39396,-0.58781 0.8924,-0.89791 1.9657,-1.22287 1.3059,-0.39541 1.4607,-0.51754 1.6866,-1.33066 0.13657,-0.49241 0.24931,-1.25977 0.25034,-1.70518 9.4e-4,-0.72428 0.0763,-0.80987 0.71291,-0.80987 h 0.71145 l -0.0272,2.05584 c -0.0238,2.0293 -0.0204,2.05682 0.61313,2.13029 0.51895,0.0603 1.01557,-0.31743 2.63848,-2.00796 1.59813,-1.66467 2.03169,-2.27943 2.16142,-3.06476 0.0893,-0.54034 0.16314,-3.526 0.16485,-6.63481 0.002,-6.52281 0.12737,-6.23948 -2.44562,-5.57272 -2.1484,0.55673 -2.28637,0.52894 -2.28637,-0.46039 0,-0.92807 -0.29802,-1.1457 -1.57783,-1.15186 -1.01491,-0.004 -1.33424,-0.22037 -1.53986,-1.03975 -0.0916,-0.36561 -0.34024,-0.73126 -0.55192,-0.81253 -0.21184,-0.0811 -2.30429,-0.2173 -4.64994,-0.30243 l -4.26484,-0.15463 -2.36223,-2.519 c -1.2992,-1.38546 -2.98129,-3.14462 -3.73792,-3.90932 l -1.3757,-1.39025 -5.35772,-0.79102 -5.3577,-0.79101 -3.93413,-2.64747 c -3.59791,-2.42115 -3.90676,-2.68691 -3.61335,-3.1094 0.17643,-0.25409 0.97957,-1.41268 1.78467,-2.57473 l 1.46384,-2.11275 -0.28712,-2.81355 c -0.15768,-1.54744 -0.35693,-3.36395 -0.44211,-4.03664 l -0.15497,-1.22308 1.51986,0.15871 c 1.81577,0.18971 1.78869,0.21049 3.42647,-2.62009 0.65876,-1.13854 1.23595,-2.11884 1.28257,-2.17847 0.0467,-0.0596 0.50801,0.30482 1.02526,0.80987 1.3323,1.301 1.84655,1.21875 2.56546,-0.41016 l 0.58629,-1.3285 0.82064,0.48418 0.82064,0.48417 2.92249,-1.86503 c 2.9993,-1.91406 7.60867,-4.42064 8.12919,-4.42064 0.16042,0 4.18686,-1.44776 8.94707,-3.21723 l 8.65495,-3.21727 7.90829,0.1376 7.90833,0.13759 0.94962,0.7453 c 1.07458,0.8434 0.66608,0.84768 6.77542,-0.0713 1.91883,-0.28847 3.88122,-0.62702 4.36093,-0.75205 1.10683,-0.28848 1.37061,-0.29393 1.37061,-0.0272 0,0.11749 0.86905,1.19965 1.93127,2.40483 1.06214,1.20516 1.93125,2.29314 1.93125,2.41769 0,0.12465 0.14032,0.14576 0.31163,0.0473 0.17778,-0.1025 0.22376,-0.0835 0.10728,0.0443 -0.23432,0.25612 -1.91953,0.31674 -1.7631,0.0634 0.15258,-0.24692 -1.33602,-0.52324 -1.67824,-0.31163 -0.17301,0.1066 -0.22785,0.0745 -0.13351,-0.0777 0.13657,-0.22138 -0.53325,-0.55072 -1.14239,-0.56182 -0.10286,-0.002 -0.18664,2.1922 -0.18664,4.87571 v 4.87912 l -0.68532,-0.13589 c -1.89533,-0.3758 -2.55429,-0.43847 -2.55476,-0.24284 -2.5e-4,0.11785 -1.12162,9.00435 -2.49197,19.74738 -1.37028,10.74301 -2.49141,19.78293 -2.49141,20.0887 0,0.47242 0.1737,0.57967 1.15615,0.71438 0.63587,0.0871 1.74621,0.15871 2.46741,0.15871 h 1.31118 l 0.14883,2.80343 c 0.0821,1.54192 0.23296,5.26552 0.33616,8.27465 l 0.18732,5.4712 7.72509,1.56608 c 4.2488,0.8613 8.03257,1.53065 8.40844,1.48739 0.37601,-0.0432 0.61955,-0.0137 0.5415,0.0634 -0.078,0.078 0.50849,0.27213 1.30341,0.43142 1.38694,0.27792 1.46775,0.26531 2.00083,-0.30994 0.30551,-0.32968 0.62127,-0.59943 0.70158,-0.59943 0.0803,0 0.11341,0.66125 0.0739,1.46942 -0.0399,0.80817 -0.17371,1.40741 -0.29801,1.33159 -0.12432,-0.0756 -0.1628,0.10422 -0.0854,0.39992 0.0773,0.29562 0.0399,0.47484 -0.0851,0.39803 -0.20947,-0.12942 -0.32458,0.30278 -0.28983,1.09008 0.007,0.18051 -0.0464,0.26736 -0.12023,0.19345 -0.0739,-0.0738 -0.45291,0.36699 -0.84176,0.98018 -0.68199,1.07536 -1.26552,1.39105 -1.59272,0.86164 -0.0862,-0.13929 -0.27791,-0.17812 -0.42703,-0.0858 -0.14849,0.092 -0.19991,0.0534 -0.11374,-0.0854 0.0862,-0.13897 -0.47451,-0.9498 -1.24535,-1.8017 l -1.40169,-1.54889 -0.57695,0.70409 c -0.31743,0.38728 -0.52578,0.8501 -0.46329,1.02856 0.0627,0.17848 0.0137,0.26192 -0.11172,0.18529 -0.12397,-0.0766 -0.46019,0.24148 -0.74754,0.70627 -0.28712,0.465 -0.74565,0.90378 -1.01839,0.97514 -0.31198,0.0814 -0.43509,0.0306 -0.33173,-0.13556 0.1049,-0.16996 -0.0273,-0.21457 -0.37366,-0.12465 -0.29562,0.0773 -0.48227,0.0511 -0.41445,-0.0586 0.16382,-0.26463 -1.06525,-0.56458 -1.41855,-0.34627 -0.15189,0.094 -0.20809,0.0603 -0.1243,-0.0749 0.18322,-0.29631 -2.45928,-1.17312 -2.83511,-0.94083 -0.14508,0.0899 -0.19446,0.34467 -0.10898,0.56646 0.0851,0.22171 0.0749,0.32321 -0.0238,0.22546 -0.25954,-0.25952 -0.90619,0.7651 -0.69671,1.10404 0.10763,0.17405 0.0681,0.21968 -0.0994,0.11615 -0.16075,-0.0995 -0.44109,0.14577 -0.66788,0.58448 -0.37686,0.72894 -0.45088,0.75575 -2.08255,0.75575 h -1.69179 l 0.94894,5.29539 c 0.52195,2.91247 0.99329,5.41217 1.0474,5.55488 0.10321,0.2728 -0.46636,0.33752 -1.71505,0.19549 z m -0.85252,-29.88084 c 0.0137,-0.29018 0.0709,-0.34937 0.15055,-0.15054 0.0721,0.17983 0.0634,0.39481 -0.0204,0.47764 -0.0828,0.0828 -0.14169,-0.0644 -0.13079,-0.32696 z"
     id="path826"
     sodipodi:nodetypes="sssccssscccsssssscsssscsscscscsscccssscsscsscsscccssscccssssssscssssscscsscscsscsssssssscscsssssscssssscsssssccscsscscsssssss"
     inkscape:label="TLAH" />
  <path
     style="fill:url(#linearGradient3166);fill-opacity:1.0;stroke-width:0.250404"
     d="m 163.06513,372.09098 c -0.13765,-0.17224 -0.33555,-0.59475 -0.44,-0.93906 -0.10414,-0.34408 -0.31507,-0.70878 -0.46885,-0.80997 -0.19492,-0.12833 -0.18264,-0.18525 0.0402,-0.18785 0.17558,-0.002 0.42917,0.30614 0.56353,0.68478 0.13429,0.37876 0.35785,0.8858 0.49671,1.12684 0.29202,0.50702 0.17521,0.58342 -0.1912,0.12498 z m -8.19944,-2.46189 c -1.65266,-0.10864 -12.92081,-0.76843 -25.04037,-1.46631 -12.11952,-0.69794 -23.69664,-1.37067 -25.72692,-1.49499 l -3.69141,-0.22616 -1.638382,-1.03474 c -0.901145,-0.56914 -1.764569,-0.95678 -1.918796,-0.86148 -0.159953,0.0989 -0.21091,0.061 -0.119033,-0.0882 0.201993,-0.32735 -2.781193,-2.13476 -3.148599,-1.90767 -0.149762,0.0926 -0.195926,0.0487 -0.104602,-0.0989 0.207904,-0.33627 -1.527582,-1.37795 -1.920788,-1.15277 -0.161596,0.0927 -0.206345,0.0721 -0.09946,-0.0454 0.260021,-0.28568 -2.759414,-2.18951 -3.119625,-1.96689 -0.163002,0.10083 -0.213107,0.0629 -0.118623,-0.0901 0.207904,-0.33628 -1.527581,-1.37796 -1.920788,-1.15276 -0.161596,0.0927 -0.209987,0.0758 -0.10758,-0.0372 0.257897,-0.28458 -0.745885,-0.94697 -1.101756,-0.72701 -0.169139,0.10452 -0.220959,0.0688 -0.125141,-0.0863 0.203636,-0.32959 -1.527241,-1.38267 -1.896874,-1.15424 -0.150102,0.093 -0.198194,0.0509 -0.108402,-0.0945 0.202218,-0.32697 -2.781202,-2.13472 -3.148608,-1.90766 -0.149762,0.0926 -0.195926,0.049 -0.104604,-0.0989 0.207904,-0.33627 -1.52758,-1.37795 -1.920788,-1.15275 -0.161596,0.0926 -0.209987,0.0758 -0.10758,-0.0372 0.257896,-0.28457 -0.745896,-0.94701 -1.101756,-0.72706 -0.16915,0.10453 -0.220959,0.0689 -0.12514,-0.0863 0.203624,-0.32959 -1.527242,-1.38269 -1.896886,-1.15422 -0.15009,0.093 -0.198194,0.051 -0.10839,-0.0945 0.202207,-0.32735 -2.781212,-2.13475 -3.148618,-1.90766 -0.149763,0.0927 -0.195928,0.049 -0.104605,-0.099 0.207904,-0.33628 -1.527579,-1.37796 -1.920788,-1.1528 -0.161585,0.0927 -0.209987,0.0759 -0.10758,-0.0372 0.257907,-0.28458 -0.745885,-0.947 -1.101745,-0.72705 -0.16915,0.10453 -0.220969,0.0688 -0.125141,-0.0863 0.203625,-0.32958 -1.527241,-1.38267 -1.896875,-1.15425 -0.151444,0.0937 -0.198092,0.0506 -0.106358,-0.0977 0.203634,-0.32958 -1.527242,-1.38268 -1.896874,-1.1542 -0.150728,0.0934 -0.198154,0.0505 -0.107426,-0.0963 0.08928,-0.14434 -0.01119,-0.32959 -0.223608,-0.41098 -0.212327,-0.0815 -0.504359,-0.48757 -0.648958,-0.90237 -0.148274,-0.4254 -0.378326,-0.6829 -0.527628,-0.59059 -0.159984,0.0989 -0.190302,0.0432 -0.07667,-0.14063 0.249418,-0.40356 -0.346284,-1.81507 -0.679195,-1.60932 -0.155336,0.0959 -0.18435,0.0383 -0.07205,-0.1436 0.249409,-0.40356 -0.346284,-1.81508 -0.679195,-1.60933 -0.154031,0.0952 -0.184503,0.0387 -0.07472,-0.13911 0.238366,-0.38572 -3.133296,-8.30818 -3.452002,-8.11117 -0.134398,0.083 -0.156679,0.0149 -0.05091,-0.15661 0.249408,-0.40355 -0.346284,-1.81508 -0.679194,-1.60933 -0.155336,0.0959 -0.18435,0.0383 -0.07205,-0.14358 0.249419,-0.40357 -0.346284,-1.81509 -0.679185,-1.60934 -0.155336,0.0959 -0.18436,0.0383 -0.07205,-0.14358 0.249419,-0.40358 -0.346284,-1.81508 -0.679186,-1.60934 -0.153959,0.0952 -0.184502,0.0387 -0.07492,-0.13874 0.238561,-0.38601 -2.380625,-6.55641 -2.699404,-6.35936 -0.132088,0.0815 -0.167765,0.0298 -0.07934,-0.11197 0.237288,-0.38397 -0.335385,-1.84893 -0.6474,-1.65609 -0.159994,0.0989 -0.190312,0.0436 -0.07667,-0.14061 0.249419,-0.40354 -0.346284,-1.81505 -0.679196,-1.6093 -0.155334,0.0959 -0.184349,0.0383 -0.07205,-0.14359 0.249419,-0.40352 -0.346284,-1.81503 -0.679185,-1.60929 -0.15397,0.0952 -0.184503,0.0383 -0.07492,-0.13875 0.23855,-0.38604 -2.38062,-6.5564 -2.699406,-6.3594 -0.132093,0.0819 -0.168473,0.0335 -0.08084,-0.10936 0.08763,-0.14173 -0.003,-0.75082 -0.201581,-1.35333 -0.198493,-0.60251 -1.223707,-6.10978 -2.278241,-12.23844 -1.054534,-6.12866 -2.081626,-11.40534 -2.282428,-11.726 -0.218878,-0.34965 -0.513277,-0.52621 -0.735063,-0.4411 -0.203477,0.0781 -0.304622,0.0372 -0.224755,-0.093 0.178628,-0.28904 -0.734778,-0.81309 -0.983567,-0.56431 -0.09846,0.0985 -0.141429,0.0498 -0.09554,-0.10787 0.115613,-0.3974 -2.233082,-2.15999 -2.586861,-1.94134 -0.160029,0.0989 -0.218877,0.0674 -0.133172,-0.071 0.08444,-0.13654 -0.56495,-0.77598 -1.443081,-1.42075 l -1.59661,-1.17232 0.400515,-0.93786 0.400512,-0.93781 1.394262,0.66563 c 0.766847,0.36604 2.667746,1.45392 4.224222,2.4173 2.547512,1.57682 2.997351,1.76794 4.507266,1.91517 2.979162,0.29052 2.947573,0.2749 3.202452,1.59066 0.217315,1.12202 0.273262,1.18351 1.229295,1.35166 0.550893,0.0966 3.607676,0.18264 6.792842,0.19045 4.351848,0.0111 5.85105,-0.0636 6.0319,-0.2987 0.132356,-0.17223 0.501794,-1.27078 0.82094,-2.44144 0.711464,-2.60975 0.677318,-2.54331 2.1668,-4.21418 3.598019,-4.0361 3.247342,-3.79676 8.852299,-6.04204 2.823303,-1.13096 5.259473,-2.21719 5.413731,-2.41387 0.160169,-0.20422 0.32898,-1.78867 0.393618,-3.69455 l 0.113164,-3.33691 2.029497,-3.48325 2.029487,-3.48321 0.15204,-9.76575 0.152031,-9.76573 1.655769,-3.40517 c 1.851654,-3.80801 1.934972,-4.54889 0.569532,-5.06428 -0.657797,-0.24812 -0.739914,-0.39598 -0.739914,-1.33075 0,-1.86165 -0.03089,-1.84357 3.148034,-1.84357 2.454964,0 2.875174,-0.06 3.071644,-0.43824 0.125172,-0.24104 0.542949,-2.27288 0.928378,-4.51526 l 0.700758,-4.07707 1.942228,-1.85555 c 1.801435,-1.72108 2.02973,-1.86117 3.149477,-1.93262 1.128243,-0.0721 1.377103,0.0373 3.800293,1.64558 3.0272,2.01112 4.25277,2.44346 6.66492,2.35116 1.68599,-0.0644 1.87017,-0.0112 4.38908,1.25986 l 2.62926,1.32721 12.26975,0.23324 12.2698,0.23322 0.82285,0.88729 c 1.26936,1.36875 5.47815,4.19125 5.99822,4.02249 0.24253,-0.0785 0.99462,-1.15708 1.67174,-2.39651 l 1.23115,-2.25346 h 2.79006 c 1.85874,0 2.91928,-0.10452 3.17709,-0.31284 0.21279,-0.17224 1.20442,-1.58069 2.20352,-3.13007 0.99904,-1.54935 1.94941,-2.81705 2.11193,-2.81705 0.16256,0 3.77987,1.57755 8.03864,3.50566 l 7.74324,3.50569 h 3.32751 3.3275 l -0.007,0.81379 c -0.007,0.77565 -0.18451,0.92651 -3.81869,3.2174 -4.28068,2.69847 -2.03786,1.90617 -18.42895,6.51049 -3.08083,0.86542 -5.75701,1.729 -5.94711,1.91905 -0.27156,0.27155 -0.34559,1.45048 -0.34559,5.49523 v 5.14966 l 1.78075,1.65407 1.78078,1.65408 -0.0966,4.01621 -0.0966,4.01617 -2.1456,3.1222 c -2.12818,3.09691 -2.15351,3.12225 -3.12361,3.12225 H 152.611 l -0.12908,-1.28069 c -0.071,-0.70431 -0.26819,-1.44859 -0.43871,-1.65388 -0.38378,-0.46244 -3.84524,-1.51337 -4.62162,-1.40318 -0.48991,0.0696 -0.59295,0.27452 -0.73303,1.45807 -0.0896,0.75748 -0.1741,2.07254 -0.18787,2.92235 -0.026,1.5337 -0.0298,1.54641 -0.83861,1.71914 -1.44909,0.30985 -1.43985,0.27452 -1.43947,5.46792 l 2.2e-4,4.78964 1.50213,1.83777 c 1.44718,1.77056 1.50183,1.88963 1.49439,3.25523 -0.007,1.38261 -0.0372,1.43822 -1.12683,2.26054 -0.61545,0.46369 -1.11901,1.04877 -1.11901,1.30024 0,0.56166 6.19077,5.99482 6.83078,5.99482 0.24551,0 0.51148,-0.16889 0.59078,-0.3756 0.10268,-0.2671 0.5157,-0.37452 1.43197,-0.37199 0.7083,0.002 3.1015,-0.13168 5.31824,-0.29685 l 4.03041,-0.30057 1.05801,0.86037 1.05801,0.86041 -0.125,11.39337 c -0.11085,10.11402 -0.18115,11.66539 -0.62623,13.8157 -0.27565,1.33227 -0.62108,4.43105 -0.76731,6.88612 -0.14619,2.45505 -0.33292,5.38751 -0.41454,6.51656 l -0.14841,2.05286 -3.92247,-2.85467 c -7.32233,-5.32896 -7.23249,-5.2736 -7.76998,-4.78723 -0.42935,0.38858 -0.48536,1.03573 -0.65335,7.54839 l -0.18377,7.12338 -4.35598,8.50099 c -2.39579,4.67557 -4.35597,8.65037 -4.35597,8.83287 0,0.18264 4.19739,4.40343 9.32751,9.37985 7.11041,6.89729 9.42729,9.29245 9.74717,10.07633 l 0.4196,1.02838 -1.79682,-0.0372 c -0.98825,-0.0186 -3.14902,-0.12537 -4.80169,-0.23398 z M 34.924082,272.74612 c -0.08771,-0.14211 0.01264,-0.18376 0.235617,-0.0985 0.433802,0.16664 0.513172,0.34594 0.152999,0.34594 -0.129601,0 -0.304472,-0.11123 -0.388616,-0.24737 z m -0.911946,-1.26466 c -0.362875,-0.4078 -0.577535,-0.74144 -0.477019,-0.74144 0.19321,0 0.814192,0.66334 1.113478,1.18943 0.283232,0.49784 0.07429,0.35079 -0.636459,-0.44799 z m -1.559219,-0.61623 c 0.07928,-0.20645 0.258569,-0.3756 0.39841,-0.3756 0.146565,0 0.122199,0.15921 -0.05743,0.3756 -0.17145,0.20646 -0.350747,0.37561 -0.398406,0.37561 -0.04769,0 -0.02195,-0.16889 0.05744,-0.37561 z"
     id="path851"
     inkscape:label="TLAL" />
  <path
     style="fill:url(#linearGradient3168);fill-opacity:1.0;stroke-width:0.248596"
     d="m 166.77258,134.84314 c 0.0763,-0.5127 0.60744,-6.66355 1.18052,-13.66851 l 1.04193,-12.73632 -1.11018,-1.43363 -1.11014,-1.43365 0.88878,-3.17205 0.88877,-3.172064 4.07868,2.396874 4.07869,2.39681 3.82591,0.83737 c 4.63208,1.0138 5.02072,1.02664 5.80002,0.1916 0.33147,-0.35517 0.89819,-0.85757 1.25934,-1.1164 l 0.65667,-0.4706 0.9592,0.93507 c 0.9299,0.90649 3.79072,2.7893 4.23821,2.7893 0.12148,0 1.02627,-0.73503 2.01059,-1.6334 l 1.78971,-1.63342 5.53409,2.13095 c 3.04373,1.17201 5.70712,2.13078 5.91858,2.13059 0.42477,-3.7e-4 10.18533,-2.21117 10.43013,-2.36242 0.0842,-0.0521 0.55177,0.71062 1.03883,1.69496 0.7652,1.54645 0.83691,1.83513 0.52767,2.124 -0.19681,0.18386 -0.29789,0.49063 -0.22454,0.6817 0.0734,0.19102 0.006,0.3474 -0.1489,0.3474 -0.15529,0 -0.21299,0.0694 -0.12844,0.15392 0.0845,0.0845 -0.0135,0.32135 -0.21828,0.52605 -0.20469,0.20467 -0.33021,0.498 -0.27893,0.65183 0.0515,0.15375 -0.0607,0.43349 -0.24859,0.62148 -0.18812,0.18792 -0.29989,0.46766 -0.2486,0.62148 0.0514,0.15393 -0.062,0.43494 -0.25179,0.62469 -0.18967,0.18967 -0.28395,0.5042 -0.20927,0.69877 0.0839,0.21833 0.0293,0.28798 -0.14234,0.18194 -0.16689,-0.10315 -0.23228,-0.0346 -0.1636,0.17132 0.0629,0.1887 -0.0394,0.49696 -0.22744,0.68495 -0.18792,0.18793 -0.29987,0.46765 -0.24861,0.6215 0.0514,0.15392 -0.062,0.43491 -0.2518,0.62467 -0.18966,0.18967 -0.28616,0.49839 -0.21421,0.68586 0.0717,0.18753 0.0155,0.34083 -0.12458,0.34083 -0.14041,0 -0.18638,0.11177 -0.10178,0.24859 0.0843,0.13675 0.0232,0.24861 -0.13617,0.24861 -0.15992,0 -0.22345,0.17305 -0.14177,0.3858 0.0942,0.24562 0.047,0.32338 -0.12998,0.214 -0.16687,-0.10305 -0.23229,-0.0346 -0.16358,0.17133 0.0628,0.18868 -0.0394,0.49693 -0.22744,0.6849 -0.18793,0.18794 -0.29989,0.46768 -0.2486,0.62153 0.0513,0.15372 -0.062,0.43493 -0.25179,0.62466 -0.18987,0.18986 -0.28617,0.4984 -0.21423,0.68586 0.0721,0.18754 0.003,0.34083 -0.15141,0.34083 -0.15529,0 -0.213,0.0694 -0.12825,0.15394 0.0845,0.0845 -0.0135,0.32137 -0.21826,0.52606 -0.20469,0.20469 -0.33166,0.49362 -0.28219,0.64209 0.0494,0.14852 -0.0854,0.47524 -0.29964,0.72612 -0.36188,0.42367 -0.7171,0.44435 -4.98863,0.29015 -4.31118,-0.15566 -4.62356,-0.13674 -4.99101,0.30158 -0.21559,0.25716 -1.66228,2.464 -3.21487,4.90409 l -2.8229,4.43655 -9.83638,-0.17421 -9.83639,-0.17422 -0.98268,1.02041 -0.98271,1.02043 h -5.1919 -5.19189 z"
     id="path871"
     sodipodi:nodetypes="sscccccccssscssscssssssssssssscssssssssssscssscsssscssscccccccs"
     inkscape:label="VC" />
  <path
     style="fill:url(#linearGradient3170);fill-opacity:1.0;stroke-width:0.248066"
     d="m 165.8107,319.52376 c 0.0676,-0.95506 0.18898,-3.07604 0.27026,-4.71329 0.0809,-1.63721 0.37364,-4.14891 0.65018,-5.58149 0.41547,-2.15242 0.53876,-4.19845 0.70991,-11.78325 0.11381,-5.04814 0.21427,-10.28996 0.22294,-11.64843 l 0.0144,-2.47 -1.61759,-1.57831 -1.61757,-1.57829 -1.29722,0.13838 c -0.71345,0.0762 -3.54798,0.26087 -6.29891,0.41034 l -5.00172,0.27171 -1.97757,-1.69549 -1.97754,-1.69551 0.83958,-0.70026 c 0.83795,-0.69884 0.83965,-0.70463 0.83965,-2.89227 v -2.19208 l -1.4894,-1.78261 -1.48933,-1.78258 0.0629,-3.87352 0.0629,-3.87349 0.83828,-0.17126 c 0.46103,-0.094 0.91918,-0.30206 1.01803,-0.46205 0.0987,-0.16006 0.25003,-1.35994 0.33603,-2.66663 0.086,-1.30664 0.19547,-2.41534 0.24388,-2.46376 0.15067,-0.15067 1.7712,0.4773 1.96316,0.76112 0.10045,0.14812 0.18391,0.7917 0.18608,1.43003 0.007,1.7244 0.3763,1.97476 2.79537,1.88782 l 1.99274,-0.0715 2.3347,-3.3489 c 1.2841,-1.84191 2.42451,-3.57216 2.53424,-3.84505 0.1095,-0.2728 0.26159,-2.4852 0.33783,-4.91629 l 0.13839,-4.42015 -1.71574,-1.6328 -1.71572,-1.63286 0.002,-4.3658 0.002,-4.36582 9.72488,-2.72878 9.72488,-2.7287 3.85491,-2.44154 c 2.12018,-1.34285 4.05331,-2.63274 4.2958,-2.8664 0.38854,-0.3745 0.46978,-1.23063 0.68424,-7.21451 0.13369,-3.73428 0.27026,-6.81403 0.30351,-6.84392 0.0325,-0.0289 3.61685,4.21668 7.96416,9.43681 l 7.90422,9.49114 1.94379,0.67663 c 1.46097,0.50862 3.17613,1.50179 6.90559,3.99879 l 4.96184,3.32217 5.32676,0.81151 5.3268,0.8115 3.49772,3.76632 c 1.92373,2.07148 3.69038,3.82042 3.92589,3.88654 0.23557,0.0661 2.18619,0.19619 4.33487,0.28904 l 3.90674,0.16874 0.20016,0.78011 c 0.18102,0.70605 0.32845,0.80494 1.54985,1.04138 1.03556,0.20053 1.3666,0.37367 1.42228,0.74419 0.17703,1.17713 0.31867,1.55289 0.63222,1.67317 0.18427,0.0708 1.20646,-0.0741 2.27129,-0.32156 l 1.93605,-0.45006 -0.1727,5.24811 -0.1727,5.2481 -0.85614,0.86409 -0.85609,0.86411 v -1.04142 c 0,-1.35059 -0.46003,-1.5986 -2.78949,-1.50379 -2.0073,0.0817 -2.00448,0.0788 -2.30156,2.4758 -0.14127,1.13792 -0.17018,1.17137 -1.37887,1.57275 -1.19128,0.39571 -1.33061,0.54793 -3.95432,4.32026 l -2.7195,3.91012 -9.49045,2.68539 c -5.21978,1.47693 -16.02083,4.53826 -24.00237,6.80294 l -14.51194,4.11755 -10.59069,19.71481 c -5.8249,10.84314 -10.71031,19.88225 -10.85647,20.0869 -0.19511,0.27315 -0.23305,-0.09 -0.14308,-1.36435 z"
     id="path887"
     inkscape:label="XOCH" />
  <circle
     style="fill:url(#linearGradient4570);fill-opacity:1;stroke-width:1.17053"
     id="path4564"
     cx="140.31371"
     cy="103.80908"
     r="9.4488192" />
  <circle
     style="fill:url(#linearGradient4574);fill-opacity:1;stroke-width:1.17053"
     id="circle4572"
     cx="100.06504"
     cy="196.94264"
     r="9.4488192" />
  <circle
     style="fill:url(#linearGradient6756);fill-opacity:1;stroke-width:1.17053"
     id="circle6754"
     cx="181.4984"
     cy="172.60623"
     r="9.4488192" />
</svg>
